<mxfile host="www.draw.io" modified="2019-12-16T16:55:27.568Z" agent="Mozilla/5.0 (X11; Linux x86_64) AppleWebKit/537.36 (KHTML, like Gecko) Chrome/78.0.3904.108 Safari/537.36" etag="hTLhH7bmxZgOUAjIZChS" version="12.4.2" type="github" pages="1">
  <diagram id="hVbTtgjmN9lB4szXonKa" name="Page-1">
    <mxGraphModel dx="1552" dy="1579" grid="1" gridSize="10" guides="1" tooltips="1" connect="1" arrows="1" fold="1" page="1" pageScale="1" pageWidth="850" pageHeight="1100" math="0" shadow="0">
      <root>
        <mxCell id="0"/>
        <mxCell id="1" parent="0"/>
        <mxCell id="71u3ecABH108ZCmo1haN-1" value="" style="image;html=1;labelBackgroundColor=#ffffff;image=img/lib/clip_art/computers/Network_128x128.png" parent="1" vertex="1">
          <mxGeometry x="510" y="350" width="80" height="80" as="geometry"/>
        </mxCell>
        <mxCell id="71u3ecABH108ZCmo1haN-2" value="Elinext Network" style="text;html=1;strokeColor=none;fillColor=none;align=center;verticalAlign=middle;whiteSpace=wrap;rounded=0;" parent="1" vertex="1">
          <mxGeometry x="520" y="450" width="70" height="20" as="geometry"/>
        </mxCell>
        <mxCell id="71u3ecABH108ZCmo1haN-4" value="" style="html=1;strokeWidth=1;shadow=0;dashed=0;shape=mxgraph.ios7.misc.vpn;fillColor=#007AFF;strokeColor=none;buttonText=;strokeColor2=#222222;fontColor=#222222;fontSize=8;verticalLabelPosition=bottom;verticalAlign=top;align=center;" parent="1" vertex="1">
          <mxGeometry x="440" y="380" width="55" height="27.5" as="geometry"/>
        </mxCell>
        <mxCell id="71u3ecABH108ZCmo1haN-9" value="" style="endArrow=classic;html=1;exitX=-0.018;exitY=0.727;exitDx=0;exitDy=0;exitPerimeter=0;" parent="1" source="71u3ecABH108ZCmo1haN-4" edge="1">
          <mxGeometry width="50" height="50" relative="1" as="geometry">
            <mxPoint x="440" y="540" as="sourcePoint"/>
            <mxPoint x="330" y="400" as="targetPoint"/>
          </mxGeometry>
        </mxCell>
        <mxCell id="71u3ecABH108ZCmo1haN-10" value="" style="ellipse;shape=cloud;whiteSpace=wrap;html=1;" parent="1" vertex="1">
          <mxGeometry y="270" width="340" height="240" as="geometry"/>
        </mxCell>
        <mxCell id="71u3ecABH108ZCmo1haN-12" value="" style="shape=image;html=1;verticalAlign=top;verticalLabelPosition=bottom;labelBackgroundColor=#ffffff;imageAspect=0;aspect=fixed;image=https://cdn4.iconfinder.com/data/icons/logos-brands-5/24/jenkins-128.png" parent="1" vertex="1">
          <mxGeometry x="220" y="363.63" width="60.25" height="60.25" as="geometry"/>
        </mxCell>
        <mxCell id="mrAvrRE1MW7g6DJ7nFR--1" value="IMS Network" style="text;html=1;strokeColor=none;fillColor=none;align=center;verticalAlign=middle;whiteSpace=wrap;rounded=0;" vertex="1" parent="1">
          <mxGeometry x="140" y="450" width="90" height="20" as="geometry"/>
        </mxCell>
        <mxCell id="mrAvrRE1MW7g6DJ7nFR--2" value="" style="shape=image;verticalLabelPosition=bottom;labelBackgroundColor=#ffffff;verticalAlign=top;aspect=fixed;imageAspect=0;image=data:image/png,iVBORw0KGgoAAAANSUhEUgAABBAAAAHGCAIAAABCWO8yAAAgAElEQVR4Aezde1RTV/4//L2TnFxIAFsuodCiIkkEFWq7ioCdX1trmVbkK6BSB586LWAvzwydEZWZqmNtR9upBfu0dH7OeGvtVKdWVPhBGMszujrraUHoWOROEgSkrQZUlAoWLMl51klCCBDuAQXfWV3l5Jx9+ezX8Y98zt47oSzLErwgAAEIQAACEIAABCAAAQjYE+DZO4lzEIAABCAAAQhAAAIQgAAEOAEkDPh3AAEIQAACEIAABCAAAQgMKICEYUAaXIAABCAAAQhAAAIQgAAEkDDg3wAEIAABCEAAAhCAAAQgMKAAEoYBaXABAhCAAAQgAAEIQAACEEDCgH8DEIAABCAAAQhAAAIQgMCAAkgYBqTBBQhAAAIQgAAEIAABCEAACQP+DUAAAhCAAAQgAAEIQAACAwogYRiQBhcgAAEIQAACEIAABCAAASQM+DcAAQhAAAIQgAAEIAABCAwogIRhQBpcgAAEIAABCEAAAhCAAASQMODfAAQgAAEIQAACEIAABCAwoAAShgFpcAECEIAABCAAAQhAAAIQQMIwwn8DbH6isyuVLNilNYywJopDAAIQgAAEIAABCEBg8gmMLWEwf3qmPa+16q7xMrD9pG57PMz+tBmhInFPoJSOY6jDDAnFIAABCEAAAhCAAAQgcMcLjCFh0GaEiv/nAG+52mhkTa+cpJnjOF4asf9GK/tTUYqSP/peXF7gojV+kSBz2Rf/Yh7Ljr4p1IQABCAAAQhAAAIQgMBdIDD6hIHVaYtudQrmzFZQaoZaurdub6SAO+498xC+q8oi2fu889psS0nXBO6ze695g9q0MC8qWZCe9hKllAnfqWO/sKwF0mjSwtccaPuRdBSvVwmc12bnrvWjlFp7YdXJlFKu8YFe1C9groTcqqzRGQeO1hSAdUrC7hokc8CuCelpj5sLhu+q0qQvNh8PFsBAgeE8BCAAAQhAAAIQgAAE7jCB0ScMVKFcIBR1Ff5Baf6AbP1IzeYnuqz8ZN5mLTftoHs3VF64fg63/sd0/kDX7HRNl3lG4sbeZUNodBRv2Linbxnqv6HgkwSZCxGHpGu6buxdtnTjugVC0TeZuTquaG369qNEHPLGxqV9K1rfa/+V+e11wfzlUUq+OSo70RL/DYV6c5ys5oMFxtL1j6y1PyPx40fHeP+bKyMUFa6f8wL9wDyD0fbpW9jnYCXHAQQgAAEIQAACEIDAJBUYfcJAlMlnOiveDZVbRm563r9W3cXm5Rxo+7E7kVBsPNNECKnUaM3nZf/XphGsKTKlBCzL/lyQqiCWeQw70MrkLWu8uwr/sFPdRUzJwIC9/PhRJI9HVa9WrjliapMMFC3Xi3Xbg+rVoluddvo1n3J5Ycu6AKJQzRGKiPnYPIMxYAVcgAAEIAABCEAAAhCAwKQRGEPCwI2x5zF8TdqThJDPstTmoQvC3jHNMFie0RekBI4rSWR0pLn33HffK7rVucr01k6PLi/k1vw/C4Sitn3Rtpue+0fLrWtSvVokjrfuebDTGk5BAAIQgAAEIAABCEBgqguMPmHQpC+2Xaavq6kjhKyKjqRLohJkLpbn/Sa+3LV+a9Vd5vP2F+pYtxMMk7vfI3wa+bt3Q+Vt+6Kj9tULwt5JNW+lsNcaVb568K1HCSHmTc8DRWuuKotbtoRSotNUDjLDYK8XnIMABCAAAQhAAAIQgMDUEBh9wkAIadsXbd0VHPWpR7qmi9v0zH2d0dl3Q+X7ljLmq1H76jksGrH/x6MJgpr1KkHPtmAakbrtEfP2Zcr7JbeVeVgv/6gVc62bnk01/NdvWWmu+vzmFMWgjajW/41bSfXjR5HTEvPIU3ajpZEZOUkzzQOUrDk0aHu4CAEIQAACEIAABCAAgSkrQNmp8tWirDqZt/RDQdg7VdyGB7wgAAEIQAACEIAABCAAAQcIjGmGwQH9O6wJ05cjETLk9ILDOkRDEIAABCAAAQhAAAIQuAsEps4Mw11wszBECEAAAhCAAAQgAAEITLSA6XfWRtUp7f69tlHVRiUIQAACEIAABCAAAQhA4DYIjHRLAmYYbsNNQpcQgAAEIAABCEAAAhCYLAJTZg/DZAFHnBCAAAQgAAEIQAACEJhMAkgYJtPdQqwQgAAEIAABCEAAAhCYYAEkDBMMju4gAAEIQAACEIAABCAwmQSQMEymu4VYIQABCEAAAhCAAAQgMMECSBgmGBzdQQACEIAABCAAAQhAYDIJIGGYTHcLsUIAAhCAAAQgAAEIQGCCBUb/OwwTHCi6gwAEIAABCEAAAhCAAATGT6C28crx02XFFRdqGy8TQvx9PULmTo9dFITfYRg/c7QMAQhAAAIQgAAEIACBSSBgNLK7j379aU7x8qfmz5/tE6TyJoSUaS6WaH7IzC9BwjAJbiFChAAEIAABCEAAAhCAwDgJGI3ss6kfO0vFb7zyTEFp3akinaahmRCimuG5OFQZHjzTwQmDwWAoKy/XabWX9HpCyH1eXgqlMmjePD6fP04jRLMQgAAEIAABCEAAAhCAwKgF/nrkqzLNxW2vPL1hV/a11pt/TFocrPRuv3nrP9+eP3KyxONeZ0cmDG1tbSeysjw9Pf1mzvTy8iKE6PX6uvr65ubmmOhomUw26mGgIgQgAAEIQAACEIAABCDgcIHaxivPbf5HZnrCxveyz1Y0RiwMeD81tqah2dvDeZqz06li3et/y3dYwmAwGA4dPjxzxozAwDma2vprra2EELd7pilmzaiqrKxvaFgdH495BoffYzQIAQhAAAIQgAAEIACBUQvs/Pi0kOHf5+689cM8bhmSnxeP0ktX2/x93Q/tWN1lMEat+9hhX6taVl4ul8uVqtkF33z7U2enm5u7u7uHwWAoLa+aHRAgl8vLystHPRL7Fdn8RLeEPJa1f3WKnb0DB3sHhjTFbjqGAwEIQAACEIAABMZZoLjiwoMqn1NFOkKIUCj4vqm1qaVdJGKClD6EkCvX2hlG4LCEQavRzPLzq61rkEplLs6uQoaROUnknh4ebm5NTU2z/Py0Gs1Q461NC/Oi1pdkwS6tYagqjriuzQgN38khDec1osLDadAhZcYjqiHbpBH7rx5YQqlDRoBGIAABCEAAAhCAAAQmXqC28fI8xX0VtZcEDJ9hGJGIEYqYB1X3r1v9C5Zl92T/VywWOSxh0Dc1yeXya62tri4uYhHjLBW7yiTOUomH+71dXQa5XK5vahqagPqla7pY8+vmnysfvjd8V9XQtVACAhCAAAQgAAEIQAACEBitAI9HGYFAyAgYRiBkmE0JTwgF/IN5JdrvWpzEQoclDObwRAzjJBE5SyUuMieZTCrmXiKp1MlgMPB4I+yLRuz/8WjAGwmWeQZtRqhIbJ5+sJNF2L1qc5K6mhcv9ZrEWKvuIqQ27dc7igr/oKTUeW02NwqbWv066luYVSdbZ0RMrfW9S7lr/SwFrBMmdtqvTQsPT097iSvpmpCe9rglElNjuWv9+obRt4W+UfUKom9hYidm0+KipEQfG94+bfZ3I8S6JMlOdVMI/brmtG1GercsJ+t1P/AGAhCAAAQgAAEI3EEC/r4e5bpLwUofgYAvYPhCRuDiLG64dL246vuvSr8Ti4SOnGHw9PRsbm52d7vX2PWzRCwUiUSM6WU0Gp1lsqtXr7q7u4/YhkbExDVX61jus2lYydaOn0xzD7rYzKReq5XsXmXzEx85FFfezlUxfpFg+Ulr/w2FessMhuaD8tUv5rGzNhzcvCDsHS3L3ti7bIiOiH+vwtqMsLhiy5SI8Qtj/KO9oiLcR/NfkffM3RkzQwYbCFu3TbOEK9l6YP36TXHHsy0fptn8E8cf37IuoIfOzmBn9oqqp6jpM70NQmCNjgwU861jNPYCF4DmA+ObaX1ZSH+33ltH+lYf+JbZjBTLmWzvFY4hAAEIQAACEIDAxAuEzJ1+TvPDohAllzBw/wkoj1dY8V1x9UUeny8WMxIHzjColMrzdXUP+Hh3dPzU0dlJTUvbu7q6DAaDVCo9X1enUipHTcDm5Rxo+SiSxzM9AldsLCzkPnx3v+xeZfNyPo97LUXZ9/cfep6vq14t6mnD0pbdprr76fuX1Wkr4zdZurDmNjalqEI555NnzZMbNDJjb6RgwPap3xsbl1qq0oiY2C+3v1dNCNHs2lm9eYPtB+sBW7Dp13rYC4FG7NuzbMCYhctjlpislM+sCKyp0RmtjZgPBncj/aoPGKftSPv0gbcQgAAEIAABCEAAAhMrELso6MjJs2HBMx4KeEDA5wv4PFepZN2q8N8uD3GSCEXcDIPjliQFBwfr9frq6ir/WbMopTdutLW1t3d1GSQSyblz5/R6fXBw8IiHb3q+bv4gK0vKsswMmP7sjbRMGZjbHPyqtV9WncyLb1cbjVwbPdMO1uvcwTCb6lVnoDfK5DOdHez1VcdcplFKzWuWhtP+0o3rTI/5T+58s23FUlWf5ofTQp8qY3w7HLf+XUx8nP1jwBkIQAACEIAABCAAgUEE/H3dn1sa8uc9J19/6algpTefz+PzLV9pY9rPIFD5uo1wX8HAvfH5/NiYmPqGhqLios6OjnvumSaTSltarhYUFtY3NMTGxIz4RxjY/ESXlebn63RJVNxna6ybBDTpi63HhBC7V7mn+0e7F/boNJXd37cki1tmfmDPPQLv6h5PVY3O9PWsdpvqLtT911pYoZxz+C3rFovthz0CFL2+MsgSJ43Yf6O1Ju3JSo12WO0TQpTJW1Z+eXxtZv9JkgFb6I6qO0ruL4dgjZDNT3oxu9cZbUb/mG2rE5s27bv1Kt3rzYBx9iqFNxCAAAQgAAEIQAACt1ng5ZULr1xr37b7ZOqax34TF67w9Uh5/+Smv58OnOGx4jFl9MJZvZ7TjzFYmUy2Oj6+tLS0pKQkJzeXEOLj7a1QKJ5ctGi42QJbt14lWG+OQxySXtqy37ymiEbsP7s9dJ6M3urkLrq8oL5us9bI7lWafPBPi2ebdlqLFywIJoHcB+jIjH9m+VEazbWRmGDZ2MB9OveL5PFkSVk39i4brCPLR3lr4eQzJSR0nnS9Kaqk3J/7rIBSRS0r745ZEPZOVUEgIYFDtN99DyKjI6OWfpiU+7fuE91/Bxis7RC6i3KJh22EYemVRLnM9owl5n5Ls7gWerHYc+vpxt6R3TjtFcQ5CEAAAhCAAAQgAIHbKMDj0SM7n9999Ovo3+9LiA1/fP501XQPSmndDy2VdU2/23HEYb/0fBsHOWTXrDpZuOOBqoJUxZBFUQACEIAABCAAAQhAAAJ3pUBt45Xjp8vOVjXqLlzmnh7PlD8ccH/ME0FTOGGoTQt7dOMZ048/cDMS+223Dt+V/wYwaAhAAAIQgAAEIAABCIxYYAonDCO2QAUIQAACEIAABCAAAQhAoI+AwzY992kXbyEAAQhAAAIQgAAEIACBKSCAhGEK3EQMAQIQgAAEIAABCEAAAuMlgIRhvGTRLgQgAAEIQAACEIAABKaAABKGKXATMQQIQAACEIAABCAAAQiMlwAShvGSRbsQgAAEIAABCEAAAhCYAgJIGKbATcQQIAABCEAAAhCAAAQgMF4CSBjGSxbtQgACEIAABCAAAQhAYAoIIGGYAjcRQ4AABCAAAQhAAAIQgMB4CSBhGC9ZtAsBCEAAAhCAAAQgAIEpICCYAmPAECAAAQhAAAIQgAAEIACBMQrUNl45frqsuOJCbeNlQoi/r0fI3Omxi4Ioy7JjbBrVIQABCEAAAhCAAAQgAIHJK2A0sruPfv1pTvHyp+bPn+0TpPImhJRpLpZofsjML0HCMHnvLCKHAAQgAAEIQAACEIDAWAWMRvbZ1I+dpeI3XnmmoLTuVJFO09BMCFHN8FwcqgwPnunghMFgMJSVl+u02kt6PSHkPi8vhVIZNG8en88f61BQHwIQgAAEIAABCEAAAhBwtMBfj3xVprm47ZWnN+zKvtZ6849Ji4OV3u03b/3n2/NHTpZ43OvsyIShra3tRFaWp6en38yZXl5ehBC9Xl9XX9/c3BwTHS2TyRw9OrQHAQhAAAIQgAAEIAABCIxeoLbxynOb/5GZnrDxveyzFY0RCwPeT42taWj29nCe5ux0qlj3+t/yHZYwGAyGQ4cPz5wxIzBwztmyqm8qtISQBUHK+fMCqyor6xsaVsfHY55h9DcTNSEAAQhAAAIQgAAEIOBogZ0fnxYy/Pvcnbd+mMctQ/Lz4lF66Wqbv6/7oR2ruwzGqHUfO+xrVcvKy+VyuVI1e9/nOevf3VdQqlF/eeY3b354MFM9OyBALpeXlZc7eoDW9mrTwsN3aQ3W99wBm5/olpA3/C3dIy3fq7M7+80YhzbG6ne2DaKDAAQgAAEIQAACd7NAccWFB1U+p4p0hBChUPB9U2tTS7tIxAQpfQghV661M4zAYQmDVqOZ5ed3rqLmYNa/k15O2vL2Ww+9+tubRLD7s9y6hguz/Py0Gs1QN6M2LcyLUkpdR/JBf6BGacT+qweWUDrQdZy3CGgzQsN3cv9G8IIABCAAAQhAAAIQuMsEahsvz1PcV1F7ScDwGYYRiRihiHlQdf+61b9gWXZP9n/FYpHDEgZ9U5NcLv+qpEIq5JFZM/Y01n19oUv4y5d+bv+x4FyNXC7XNzUN5e+/oVDPGr9IuC0/DkH9AmIDFEgwhrpJuA4BCEAAAhCAAAQgMMUEeDzKCARCRsAwAiHDbEp4QijgH8wr0X7X4iQWOixhMKsxfMHl5uY9+fXF527cuEk6f+Z+5EEsEhoMBh5v5H1pM0JFYm7OgdLwXVVcF6blMUmJPr1O2t4xUxWusHUhzQBVctf6mRuhkgWm5Uz+G/ZuVJia6nfJtgPCqpMtFSldq+7iglInO6/NtoTnGmpeHKVJX2wNY7CArXF2j868jMpODP01CLcWKz3tJS6eftMyPXHyfnmAC5MQ0j2HYxqAKfjatF/vKCr8g5JS0xD6FzBXJMeT7jeP2nIj7DTFlRxe2JY28QcCEIAABCAAAQhA4PYK+Pt6lOsuBSt9BAK+gOELGYGLs7jh0vXiqu+/Kv1OLBI6cobB09Ozubn5fz0yj5G6tOTsab3UfvNy+61/7xVKXReFPXz16lV3d/eRcbD5iWElWzt+YrmXLjYzybJL4dYxGnuBO6f5wPhmWq9dCtqM0BCuSkFKYK+++lVh1cm/Iu+ZWmaNmSHVup5frxvkEtemNiMsrjhd08XVNX5hjH90l9ZAFco5lRodIWxezoEfizJzNYTU5hy7uWKpiqvSr/desdl7YyeGgTTYum2aJVwwrb3XX7H5SfHfWOPsnrQxzeGYh635oHz1i3nsrA0HNy8Ie0fLsjf2LiOkfwGTjHUIxi8C3kiw5FeFenNLrKUpdgRh2xs1zkEAAhCAAAQgAAEITLBAyNzp5zQ/LApRcgkD95+A8niFFd8VV1/k8fliMSNx4AyDSqk8X1c3V6XY8MJyKXtLoP6LUP0XV3LrL6kvess9ztfVqZTKEY2f+/Dd8lEkj2d6sK3YWFho+VgvXB6zxPSrDspnVgTW1OiM5mbZ//N/00dKtl7bb2ffQr8q3Ef8T541P5WnkRl7I3tWQQ1yiZsD0Gkr4zelKE0B0IiYuGYuKuUzK0hWjtagzipNz9llzMzVseeraXSUuVi/3od06B/DgBrU742NS/s3yOblfB73miVOm8s90w6qV4t6sqSeEvYLWIdgGrIpI7KZaeluagRh93SIIwhAAAIQgAAEIACB2yYQuyjoyMmzYcEzHgp4QMDnC/g8V6lk3arw3y4PcZIIRdwMg+OWJAUHB+v1+urqqlX/8/SxD7e99Yfkd7b8/l8H3o14NOTcuXN6vT44OHikErKkLMszbNMf24/1fZti696s6UowHjuR1/u7kvqW636vTD7T2cFeX3XMZRrtXllkuTbIpe7a/f76Ry13qtH+60TV0qjIKC55UFdVBarMC5z6FR7GCXsxjEBjgB5YdTIvvl1tNHKc9vaKDFnA3PAcldJ+yfEJe4DR4DQEIAABCEAAAhCAwFgF/H3dn1sa8uc9J19/6algpTefz+PzLV8aZNrPIFD5uo18X8EAUfH5/NiYmPqGhqLiIiehYNlTv1j6RDgx3CooLKxvaIiNiRnujzDoNJWmz/x0SVTcZ2vMmwQIIZr0xdZjOyFQv9dT9+z/8ahxldtgxbprWlqjEftvtNakPVmp4X41wvwa5BIhhHuIfvgty+Iobcb2wx4BCs5UOTtgb1RU9fKlCsolD+ujUuZGR3Y3OdTfrirzPAk3jWDabNA/hpFpmOM8mm1er2VtlhAii1tmnoGxPUmqanTd3z9rv4B1BGz+ic89zUPuX3LsYVv7wQEEIAABCEAAAhCAwMQIvLxy4ZVr7dt2n0xd89hv4sIVvh4p75/c9PfTgTM8VjymjF44q2cpztgDkslkq+PjS0tLS0pKcnJzCSE+3t4KheLJRYuGkS3UpoU9uvEM901KSbk/mz7URuw/uz10noze6uRic3lBfd20EGiQQGnE/h+PJrq4MfM2V3092ISGKmpZeXfLgrB3qgp69jwMconrWZl8poSEzpOuN0WVlPuzedkPXRKV4PLNHNOmBVXUsgVbb5g/VQ8SrOUSjUjdunO2SrCeEJfEBPNmA3sxBI5MQ5l88E+LZ5s2mlubpZEZ/8zyozSa4+zuiyiTt6z0i+TxZElZN/baK2DahhHJ+8gcsGXISjslHRD20F4oAQEIQAACEIAABCDgSAEejx7Z+fzuo19H/35fQmz44/Onq6Z7UErrfmiprGv63Y4jDvulZ0dGjbYgAAEIQAACEIAABCAAgYkVqG28cvx02dmqRt2Fy9xz8pnyhwPuj3kiCAnDxN4H9AYBCEAAAhCAAAQgAIFJJeCwPQyTatQIFgIQgAAEIAABCEAAAhAYlgAShmExoRAEIAABCEAAAhCAAATuTgEkDHfnfceoIQABCEAAAhCAAAQgMCwBJAzDYkIhCEAAAhCAAAQgAAEI3J0CSBjuzvuOUUMAAhCAAAQgAAEIQGBYAkgYhsWEQhCAAAQgAAEIQAACELg7BZAw3J33HaOGAAQgAAEIQAACEIDAsASQMAyLCYUgAAEIQAACEIAABCBwdwogYbg77ztGDQEIQAACEIAABCAAgWEJIGEYFhMKQQACEIAABCAAAQhA4O4UQMJwd953jBoCEIAABCAAAQhAAALDEkDCMCwmFIIABCAAAQhAAAIQgMDdKYCE4e687xg1BCAAAQhAAAIQgAAEhiWAhGFYTCgEAQhAAAIQgAAEIACBu1NAcHcOG6OGAAQgAAEIQAACEIAABGwFahuvHD9dVlxxobbxMiHE39cjZO702EVBlGVZ23I4hgAEIAABCEAAAhCAAATuKgGjkd199OtPc4qXPzV//myfIJU3IaRMc7FE80NmfsnEJQy73ntvOO4p69YNpxjKQAACEIAABCAAAQhAAAJjFzAa2WdTP3aWit945ZmC0rpTRTpNQzMhRDXDc3GoMjx45oQuSXrpxRcHH9Lf9+wZvACuQgACEIAABCAAAQhAAAIOFNh99Ot7XaTbXnl6w67sa603/5i0OFjp3X7z1n++PX8479v/94xuQhMGQsgXp/+/PsOjlDIMX8QIwhc80ucS3kIAAhCAAAQgAAEIQAAC4ydQ23jl09xvMtMT1u/KOlvRGLEw4NEH/Woamr09nH/19EOe9zq//rf8iU4YCCEP3P+AdcyMgM8wAiHDv3jxovUkDiAAAQhAAAIQgAAEIACBCRA4frrs2acf+qrk/NmKRkLIhUvXYlMOXLra5u/rfmjH6scenuUsk9y2r1Xl8ahIyIjFQrGIEQkZRsAfvQibn+iWkMeyxHow+rYmT827arCT57YgUghAAAIQgAAEIDCJBIorLjyo8jlVpCOECIWC75tam1raRSImSOlDCLlyrZ1hBLchYeDxeAwjEAkZiZiRiBixiBEyAqGQGa4sm5/o7EpdTRnCcOvckeW0GaHhO7mbM7oXjdh/9cASSkdXG7UgAAEIQAACEIAABCBQ23h5nuK+itpLAobPMIxIxAhFzIOq+9et/gXLsnuy/ysWiyY6YRAI+GIR4yQWypzEzlKJ1EkiFokYhhGLJcO8YWxezuerPsmJ+/JEnmGYVVAMAhCAAAQgAAEIQAACEBhIgMejjEAgZASmzQLMpoQnhAL+wbwS7XctTmLhRCcMQnPCIBE6SURisVgkEglNL7FYPNAA+pxXZ6lXRUdGRkd+lqXuc8n2LatOpt2vteouQgirTnZem82VYfMTXUN3abl8Q5O+OHxXlW3FXuuabJb95K71s7QnWWCuS7QZoSKx+WR3I7Vp4eHpaS9xJ01zIHZqWTqrTfv1jqLCPygpNUfVP+BeURHStymb2Gwjscy9mK4mJfr0Ds+mSdvq1uMha9k0gEMIQAACEIAABCAAgcku4O/rUa67FKz0EQj4AoYvZAQuzuKGS9eLq77/qvQ7sUh4e2YYuNxFIOCbXjwej8/nmxcpDYtbm7G98uXUSAFdEhX3+duWD+79a2ozwuKK0zVdLMuyxi+M8Y/u0hqoQjmnUqMjhM3LOfBjUWauhpDanGM3VyxV9W+gzxlWnfwr8h7XGssaM0Oqdab9EmElWzt+Mp3TxWYmWYJh67ZplnAnWw88k/dq31o97fpvOLh5Qdg7Wpa9sXcZsRdwT1lTtjNgU2x+4iOH4srbTcF9kWDdx37rGI29wJ3UfGB8M43b4zGcl7WW8YuANxIGFB5OUygDAQhAAAIQgAAEIHBnC4TMnX5O88OiECWXMHD/CSiPV1jxXXH1RR6fLxYzktsww8BwOxbML57pRSnlEgaB9XPuYKianGzeiqUKQgiNSN0qM33ot1Oe1Wkr4zelKE0bqWlETFwz9xFf+cwKkpWjNaizStNzdhkzc3Xs+WoaHWUuZqeZnlNcsvHJs+aH9zQyY2+kgA4GORcAACAASURBVMs6Wj6K5PFMj/AVGwsLuS64wPze2LjUXLN/rZ4Wex/ZD9imzCBNcWu04l6zDNamChEuj1liElA+syKwpkZntL044LG1lsltIOEBq+MCBCAAAQhAAAIQgMDkEYhdFHTk5Nmw4BkPBTwg4PMFfJ6rVLJuVfhvl4c4SYQiboZhwpckiUXCy5evtLRcu3b9euuPP95oa2trb29ra+fzh5Mw1OZkVhSun2NeZjN7w6lvMnNHsmnYP2q5U432XyeqlkZFRnHJg7qqKlDFpR9DvpTJZzo72OurjrlMo5Sa1zjJkrJM0wuW/+2N7DcEe7WG7Mp+AQc2Zb8D+2fnqJT2L+AsBCAAAQhAAAIQgMDkF/D3dX9uacif95x8/aWngpXefD6Pz7d8p45pP4NA5es20XsY5gQGzJw5w9v7Pg93d1cXF6mTk5NE4uQkkcmkQ4Kz6vdfoynang/purfZXTtN+xP61OWexx9+y7rTYPthjwAFN3Ll7IC9UVHVy5cqKJc8rI9KmRsd2acu97aryvw8nptG4LY/cFsduCSBRuy/0VqT9mSlRsutifpsjTlz6CnQu63+tXpfJ6SqRmdaKTRQwNbygzTF1T2abVlxpNNUDn8reL9hWrvjDtj8E597mt16nccbCEAAAhCAAAQgAIEpJPDyyoVXrrVv230ydc1jv4kLV/h6pLx/ctPfTwfO8FjxmDJ64ax+D8XHc/B/37NnLM2rs9TPb9baTAj4r9+y0iVLvXdJv29YUiafKSGh86Trb3USQpJyfzav2KFLohJcvplj2rSgilq2YOsNOx+IucVOO2erBOsJcUlMMG8JUEUtK58no6bWBGHvVBUEEhK4/+z20O6TxOUF9fW+PyVhr5YNgDJ5y0q/SB5PlpR1Y6/9gK2l7TTFfm+5qkw++KfFs3lc7idesCCYBFprDXZgb5hc+VvHInkfmSta3QZrB9cgAAEIQAACEIAABCazAI9Hj+x8fvfRr6N/vy8hNvzx+dNV0z0opXU/tFTWNf1uxxHKDnMv7GRWuHtiZ9XJwh0PVBWk2qRVIxk9m5/o/tnyK/vx8w4jUUNZCEAAAhCAAAQgMBUEahuvHD9ddraqUXfhMrc2Z6b84YD7Y54ImtAZhqkAeSeOoTYt7NGNZ5q40LiJjo2jzBbuxKEhJghAAAIQgAAEIACBCRLw93VPfX5R/84ww9DfBGcgAAEIQAACEIAABCAAAYvARG96BjwEIAABCEAAAhCAAAQgMIkEkDBMopuFUCEAAQhAAAIQgAAEIDDRAkgYJloc/UEAAhCAAAQgAAEIQGASCSBhmEQ3C6FCAAIQgAAEIAABCEBgogWQMEy0OPqDAAQgAAEIQAACEIDAJBJAwjCJbhZChQAEIAABCEAAAhCAwEQLIGGYaHH0BwEIQAACEIAABCAAgUkkgIRhEt0shAoBCEAAAhCAAAQgAIGJFkDCMNHi6A8CEIAABCAAAQhAAAKTSAAJwyS6WQgVAhCAAAQgAAEIQAACEy2AhGGixdEfBCAAAQhAAAIQgAAEJpEAEoZJdLMQKgQgAAEIQAACEIAABCZaAAnDRIujPwhAAAIQgAAEIAABCEwiASQMk+hmIVQIQAACEIAABCAAAQhMtAAShokWR38QgAAEIAABCEAAAhCYRAJIGCbRzUKoEIAABCAAAQhAAAIQmGgBgWM7NBgMZeXlOq32kl5PCLnPy0uhVAbNm8fn8x3bEVqDAAQgAAEIQAACEIAABCZAgLIs66hu2traTmRleXp6+s2c6eXlRQjR6/V19fXNzc0x0dEymcxRHaEdCEAAAhCAAAQgAAEIQGBiBByWMBgMhkOHD8+cMSMwcI6mtv5aayshxO2eaYpZM6oqK+sbGlbHx2OeYWJuKnqBAAQgAAEIQAACEICAowQctoehrLxcLpcrVbMLvvn2p85ONzd3d3cPg8FQWl41OyBALpeXlZc7Kmi0AwEIQAACEIAABCAAAQhMjIDDEgatRjPLz6+2rkEqlbk4uwoZRuYkkXt6eLi5NTU1zfLz02o0QwyJzU90S8jrtUSqNi3Mi1pfkgW7tIZejbD5ic6u1NW2Vq8qzmuze5XHGwhAAAIQgAAEIAABCEBgJAIOSxj0TU1yufxaa6uri4tYxDhLxa4yibNU4uF+b1eXQS6X65uaRhJYd1nql67pYs2vm3+ufPje8F1V3dcIm5fz+apPcuK+PJFnk0jYVPknWWdb3loRBxCAAAQgAAEIQAACEIDAcAQcljCYOxMxjJNE5CyVuMicZDKpmHuJpFIng8HA4425Lxqx/8ejAW8kWOcZ1FnqVdGRkdGRn2Wp7Y42MjqyvFpn9xJOQgACEIAABCAAAQhAAAJDCoz5Q3x3D56ens3Nze5u9xq7fpaIhSKRiDG9jEajs0x29epVd3f37rJj+EsjYuKaq3Wmb3bSZmyvfDk1UkCXRMV9/rY1i7BpvTZ9+9FV0ZE2Z3AIAQhAAAIQgAAEIAABCIxAwGEJg0qpPF9X94CPd0fHTx2dnZRSQkhXV5fBYJBKpefr6lRK5QjiGkZRTU42b8VSBSGERqRulWXmdu+RYOvWqwSmjQ+K4ytP74108G9NDCM0FIEABCAAAQhAAAIQgMAUEXBYwhAcHKzX66urq/xnzaKU3rjR1tbe3tVlkEgk586d0+v1wcHBDjBj808cfzxmCZ+Q2pzMisL1c8w7omdvOPVNZq5l7ZHNHoaClEAHdIomIAABCEAAAhCAAAQgcLcKOCxh4PP5sTEx9Q0NRcVFnR0d99wzTSaVtrRcLSgsrG9oiI2JccCPMLD5iS4rqzdvWEIpq37/NZqiteyGZllW9za7a6e66269jxg3BCAAAQhAAAIQgAAExkXAkct1ZDLZ6vj40tLSkpKSnNxcQoiPt7dCoXhy0aLhZgu3jkXyPrIM1OUF9fXXiGl90XrzKXFIemnLfiWfEKLOUj+/WcutR7K8/NdvWemSpd4bOaf7DP5CAAIQgAAEIAABCEAAAmMVcNgvPY81ENSHAAQgAAEIQAACEIAABO48AYctSbrzhoaIIAABCEAAAhCAAAQgAIGxCiBhGKsg6kMAAhCAAAQgAAEIQGAKCyBhmMI3F0ODAAQgAAEIQAACEIDAWAWQMIxVEPUhAAEIQAACEIAABCAwhQWQMEzhm4uhQQACEIAABCAAAQhAYKwCSBjGKoj6EIAABCAAAQhAAAIQmMICSBim8M3F0CAAAQhAAAIQgAAEIDBWASQMYxVEfQhAAAIQgAAEIAABCExhASQMU/jmYmgQgAAEIAABCEAAAhAYqwAShrEKoj4EIAABCEAAAhCAAASmsAAShil8czE0CEAAAhCAAAQgAAEIjFUACcNYBVEfAhCAAAQgAAEIQAACU1gACcMUvrkYGgQgAAEIQAACEIAABMYqcFsTBjY/0dmVuibksexYx4H6EIAABCAAAQhAAAIQgMA4CIw5YTB/6Kd0WJ/7zYUlC3ZpDY4Zy6gb7FOxz1vHBIdWIAABCEAAAhCAAAQgMOkFxpowsHk5B9p+5Bh+/OhEnoPSgOGr0oj9N1rZn4pSlPzhV7JT0lHt2GkapyAAAQhAAAIQgAAEIDCJBcaaMKiz1NbRf2Y9Nj+wN681sj6812jSwtdw2UVH8XqVwHlttrVidfoT1PQK31VlOanNCBWJzSdpz4xEbVqYF5UsSE97iVLKhO/UsV9wi5pMBTTpiy3lu/+YWjNV6T7T3VRt30isQZqnPuz23j2o9LTHze31RGsdCQ4gAAEIQAACEIAABCAwtQTGljCw+Sc+u0pcXlAb/5Ugc2n79K3B1hpR/w0FnyTIXIg4JF3TdWPvMovkjx8d4/1v1vhFgsyl8I00bj8Dm5/48JYicbzaaOTOC2rWP7K2Z59DR/GGjXv63wXV+n+zppcx97eEEEHYOwdTAgnx31CoN59nNR8sMJaampplPxJzo4P33j/a/qHgDAQgAAEIQAACEIAABKaKwJgSBs2unQfafpTFLVtCn45Z5UY6ijNzNSOWcXlhy7oAS61blTU6o3mZk6lZSmgE17LteidTvsGy7M8FqQpC+3anzQiL3UtcXsj+eqPCfM06XaB6tehWZ9/y/d4P0Xu/aPs1gBMQgAAEIAABCEAAAhCYOgJjSRhqczIrCCFt+6IppVH76gkh32Tm6m4jjjYjdN7GIl5w+jd7l1Aul2DVyVT1as9khczlNkaHriEAAQhAAAIQgAAEIDDpBMaQMGj/lfntddN6JCO35se0pqir5FiO9RuQTNMFvUSoX8BcSa8z9t7QJVHcAqfPs83Lk8yrnmKWDLWt2byU6FZnUubXffZAWyYrdJpK6wzDwJGMsnd7A8E5CEAAAhCAAAQgAAEITHaB0ScMue++V3SrM+z1DeZn+YRGpG57hHQUv/5urvV4vUpAeb+0fI0SR+UftWJu/03PfRFpxP6z2xd0HI7k8bjqXbOtMwZ9S9q8N6+PIoTsW8pYNyXTyIycpJnmORDJmkM2xQeOZFS927SMQwhAAAIQgAAEIAABCEwdAcriR9Omzt3ESCAAAQhAAAIQgAAEIOBggdHPMDg4EDQHAQhAAAIQgAAEIAABCNx5AkgY7rx7goggAAEIQAACEIAABCBwxwgIRh0JNX0N0airoyIEIAABCEAAAhCAAAQgMPECI92SgD0ME3+P0CMEIAABCEAAAhCAAAQmjQCWJE2aW4VAIQABCEAAAhCAAAQgMPECSBgm3hw9QgACEIAABCAAAQhAYNIIIGGYNLcKgUIAAhCAAAQgAAEIQGDiBZAwTLw5eoQABCAAAQhAAAIQgMCkEUDCMGluFQKFAAQgAAEIQAACEIDAxAsgYZh4c/QIAQhAAAIQgAAEIACBSSOAhGHS3CoECgEIQAACEIAABCAAgYkXGP0Pt018rOgRAhCAAAQgAAEIQAACEBgngdrGK8dPlxVXXKhtvEwI8ff1CJk7PXZREH64bZzA0SwEIAABCEAAAhCAAAQmh4DRyO4++vWnOcXLn5o/f7ZPkMqbEFKmuVii+SEzvwQJw+S4i4gSAhCAAAQgAAEIQAAC4yFgNLLPpn7sLBW/8cozBaV1p4p0moZmQohqhufiUGV48EwHJwwGg6GsvFyn1V7S6wkh93l5KZTKoHnz+Hz+eAwPbUIAAhCAAAQgAAEIQAACYxH465GvyjQXt73y9IZd2ddab/4xaXGw0rv95q3/fHv+yMkSj3udHZkwtLW1ncjK8vT09Js508vLixCi1+vr6uubm5tjoqNlMtlYRoK6EIAABCAAAQhAAAIQgIBjBWobrzy3+R+Z6Qkb38s+W9EYsTDg/dTYmoZmbw/nac5Op4p1r/8t32EJg8FgOHT48MwZMwID52hq66+1thJC3O6Zppg1o6qysr6hYXV8POYZHHuD0RoEIAABCEAAAhCAAATGIrDz49NChn+fu/PWD/O4ZUh+XjxKL11t8/d1P7RjdZfBGLXuY4d9rWpZeblcLleqZhd88+1PnZ1ubu7u7h4Gg6G0vGp2QIBcLi8rLx/LYKZCXTY/0S0hj2UndCx2O7V7ckLDQmcQgAAEIAABCEAAArdfoLjiwoMqn1NFOkKIUCj4vqm1qaVdJGKClD6EkCvX2hlG4LCEQavRzPLzq61rkEplLs6uQoaROUnknh4ebm5NTU2z/Py0Gs2wSNj8RGdX6jrhH6yHFdwkKaTNCA3fyd32gV40Yv/VA0soHeg6zkMAAhCAAAQgAAEI3A0CtY2X5ynuq6i9JGD4DMOIRIxQxDyoun/d6l+wLLsn+79ischhCYO+qUkul19rbXV1cRGLGGep2FUmcZZKPNzv7eoyyOVyfVPTcNDZvJzPV32SE/fliTzDcMqjDAQgAAEIQAACEIAABCAwFgEejzICgZARMIxAyDCbEp4QCvgH80q037U4iYUOSxjMIYoYxkkicpZKXGROMplUzL1EUqmTwWDg8YbVlzpLvSo6MjI68rMstWXYpvUzSYk+1PQK31VFCNGkL3Zem211yV3rZz7PqpPNxSila9VdXAF71bnz2oxQkdi2TWtrloO+BWrTwryG27hNWz0h8X55wBQRF1T/OG2qEDLcvuw4pP+ftF/vKCr8g5JSK9HxpPt7jdS6JGkYOJjt6XVn8AYCEIAABCAAAQhMIQF/X49y3aVgpY9AwBcwfCEjcHEWN1y6Xlz1/Vel34lFQkfOMHh6ejY3N7u73Wvs+lkiFopEIsb0MhqNzjLZ1atX3d3dh7bVZmyvfDk1UkCXRMV9/vYubfckw61jNPYCy7Ks5gPjm2l5LKtKSe0poM3YfvTxLesCiDYjLK44XdPFlTR+YYx/1NJCv+pcFhFWsrXjJ64kq4vNTOrpyxwlm5/4yKG48nZzU4E1OkL8NxTqTeW5MMpXv2jZjdC/cdtxsvlJ8d9YQ0ow/7L2QHH2VBxuX3YcUqI2HNy8IOwdLcve2LuMa3LwCPtf7T12S8w9seEIAhCAAAQgAAEIQGCKCITMnX5O88OiECWXMHD/CSiPV1jxXXH1RR6fLxYzEgfOMKiUyvN1dQ/4eHd0/NTR2UlN6+O7uroMBoNUKj1fV6dSKod01eRk81YsVRBCaETqVllmbve2B+HymCWmX3JQPrMisKZGZ7QtkPvue7ytG5ZQyuq0lfGbUpSmkjQiJq65WmfaYdyvOpuXc6Dlo0gez/TcXbGxsNBSsjtEbmVU3GvWpvbt4T5590wLqF4tsm5d7td4dxvc317tdF8YMM7uAiPoywbK6mDTjOlw0AhJv6t2Y+7bJt5DAAIQgAAEIAABCEx+gdhFQUdOng0LnvFQwAMCPl/A57lKJetWhf92eYiTRCjiZhgctyQpODhYr9dXV1f5z5pFKb1xo62tvb2ryyCRSM6dO6fX64ODg4circ3JrChcP8e8eGb2hlPfZOYOsnNXlZIasCMtjz154rhpemGo1vtclyVlWaYLTH/2Rpof/vcp1fOWVSfz4tvVRqN5zmFcn7uPqK8xOvSMEEcQgAAEIAABCEAAAneZgL+v+3NLQ/685+TrLz0VrPTm83l8vuV7cUz7GQQqX7dh7SsYjhufz4+NialvaCgqLurs6LjnnmkyqbSl5WpBYWF9Q0NsTMyQP8LAqt9/jaZoez7F695md+0070OwGwGNiIn9MpL3TPVmbnqBm5ZQKOccfsuyuEibsf2wR4DC/hcBcUuePltj2eRg2hFhPTZ31aspNj/pRW6/hCxumbkjboKiezeC3dCsJ7l2jmabFy9Za/VqfIA4R9BXPweu96oa3Wi/v9U2ZqLTVHavC7MOCgcQgAAEIAABCEAAAlNG4OWVC69ca9+2+2Tqmsd+Exeu8PVIef/kpr+fDpzhseIxZfTCWUM8Vh8RhEwmWx0fX1paWlJSkpObSwjx8fZWKBRPLlo0ZLZACFFnqZ/frOXWI1le/uu3rHTJUu9dIuk+0/fv0o3rFhwt4XYvmF/K5DMlJHSedP2tTkJIUu7P3Joi69oh29o0Yv/Z7aHzZNRUkri8oL5uWshkLdO7qbD0Shq57J9ZfpRGE0JcEhOGO8OgTD74p8WzTRu+e2r1btwSp7VrQmhkxoj66u+wZaVfJI8nS8q6sWdAPZsOex/axCxesCCYBPa+jHcQgAAEIAABCEAAAlNHgMejR3Y+v/vo19G/35cQG/74/Omq6R6U0rofWirrmn6344jDfun5tphp0he/QD8oSLnbP9GOnwOrThbueKCqINUmkbsttxqdQgACEIAABCAAAQiMr0Bt45Xjp8vOVjXqLlwmhChnyh8OuD/miaDJnDBoM0LnfxpXUmDZmjy+gHdw6453qE0Le3TjGdPvZnBzL/vxE2938O1HaBCAAAQgAAEIQGB8BSZzwjC+MmgdAhCAAAQgAAEIQAACECAO2/QMSwhAAAIQgAAEIAABCEBg6gkgYZh69xQjggAEIAABCEAAAhCAgMMEkDA4jBINQQACEIAABCAAAQhAYOoJIGGYevcUI4IABCAAAQhAAAIQgIDDBJAwOIwSDUEAAhCAAAQgAAEIQGDqCSBhmHr3FCOCAAQgAAEIQAACEICAwwSQMDiMEg1BAAIQgAAEIAABCEBg6gkgYZh69xQjggAEIAABCEAAAhCAgMMEkDA4jBINQQACEIAABCAAAQhAYOoJCKbekDAiCEAAAhCAAAQgAAEIQGCkArWNV46fLiuuuFDbeJkQ4u/rETJ3euyiIMqy7EjbQnkIQAACEIAABCAAAQhAYMoIGI3s7qNff5pTvPyp+fNn+wSpvAkhZZqLJZofMvNLkDBMmRuNgUAAAhCAAAQgAAEIQGDEAkYj+2zqx85S8RuvPFNQWneqSKdpaCaEqGZ4Lg5VhgfPdHDCYDAYysrLdVrtJb2eEHKfl5dCqQyaN4/P5484dlSAAAQgAAEIQAACEIAABMZZ4K9HvirTXNz2ytMbdmVfa735x6TFwUrv9pu3/vPt+SMnSzzudXZkwtDW1nYiK8vT09Nv5kwvLy9CiF6vr6uvb25ujomOlslk4zxYNA8BCEAAAhCAAAQgAAEIjECgtvHKc5v/kZmesPG97LMVjRELA95Pja1paPb2cJ7m7HSqWPf63/IdljAYDIZDhw/PnDEjMHCOprb+WmsrIcTtnmmKWTOqKivrGxpWx8djnmEEdw9FIQABCEAAAhCAAAQgMM4COz8+LWT497k7b/0wj1uG5OfFo/TS1TZ/X/dDO1Z3GYxR6z522NeqlpWXy+VypWp2wTff/tTZ6ebm7u7uYTAYSsurZgcEyOXysvLycR7vndE8m5/olpCHreR3xt1AFBCAAAQgAAEIQAACgwgUV1x4UOVzqkhHCBEKBd83tTa1tItETJDShxBy5Vo7wwgcljBoNZpZfn61dQ1SqczF2VXIMDInidzTw8PNrampaZafn1ajGSRW7hI+ag8BhMsQgAAEIAABCEAAAhBwpEBt4+V5ivsqai8JGD7DMCIRIxQxD6ruX7f6FyzL7sn+r1gscljCoG9qksvl11pbXV1cxCLGWSp2lUmcpRIP93u7ugxyuVzf1OTIwaEtCEAAAhCAAAQgAAEIQMARAjweZQQCISNgGIGQYTYlPCEU8A/mlWi/a3ESCx2WMJhDFTGMk0TkLJW4yJxkMqmYe4mkUieDwcDjjaovbUaoSExNr/BdVRYQm5PU1bz+pzYtzMtcjFK6Vt3Vv2T4ripN+mLntdlW1dy1fj1tms+aZjmSEn2sPeau9bMeW4qok/t3xFpP8n55oLtzYhNn346sQeAAAhCAAAQgAAEIQAACt0nA39ejXHcpWOkjEPAFDF/ICFycxQ2XrhdXff9V6XdikdCRMwyenp7Nzc3ubvcau36WiIUikYgxvYxGo7NMdvXqVXd39xE7sPmJYSVbO35iuZcuNjNpl9bArVx65FBceTt3zvhFguW3qv03FOpNxVhW80H56he5XQS9SwbW6FQpqXGfv801QgjRZmw/+viWdQF9o7p1jMZe4JrSfGB87aHsaK3l+M00rk1tRlhccbqmy9y7Mf5Rc0hJ8d9YT1pCsht8387wHgIQgAAEIAABCEAAArdNIGTu9HOaHxaFKLmEgftPQHm8worviqsv8vh8sZiROHCGQaVUnq+re8DHu6Pjp47OTkopIaSrq8tgMEil0vN1dSqlcqQSbF7OgZaPInk80xN9xcbCwmody+blfB73Woqy7w879DzjV71aZPr16l4lacS+PcsIjUjdKsvM5XZT5L77Hm/rhiWmOHsFJlwes8TUuEI1Rxbfc2w6x+q0lfGbLL3TiJi45oFCsht8r47wBgIQgAAEIAABCEAAArdVIHZR0JGTZ8OCZzwU8ICAzxfwea5SybpV4b9dHuIkEYq4GQbHLUkKDg7W6/XV1VX+s2ZRSm/caGtrb+/qMkgkknPnzun1+uDg4FFoyJKyLPMGpj97Iy0TCn2aYtXJvPh2tdFofvDfPe3QpxT3VpWSGrAjLY89eeK4vekFOzVGf2qYwY++A9SEAAQgAAEIQAACEIDAGAT8fd2fWxry5z0nX3/pqWClN5/P4/O55/6EENN+BoHK121U+wrsxcTn82NjYuobGoqKizo7Ou65Z5pMKm1puVpQWFjf0BAbEzOKH2GgS6LiPltj3ZCgSV+8Vt1FFco5R7Mt31uq01SalhcRQmRxy8zTBdyjfdMuAq7k4bcsC5DY/KQXTbsXaERM7JeRvGeqN9ubXrA3NNtzvdrUZmw/7BGgoLYh9fRuL3jbpnAMAQhAAAIQgAAEIACB2y7w8sqFV661b9t9MnXNY7+JC1f4eqS8f3LT308HzvBY8ZgyeuEs+w/sRxe3TCZbHR9fWlpaUlKSk5tLCPHx9lYoFE8uWjTcbOHWsUjeR5beXV5QX9+//+z20HkyequTO8md4ROafPBPi2ebtlCLFywIJoGEEBqZ8c8sP0qjuVKJCZYZBmXymRISOk+63lQ9LL3S3PLSjesWHC2xs3thOMPu3WZS7s+m5Uk9IfX0TiPsBD+cLlAGAhCAAAQgAAEIQAACEyXA49EjO5/fffTr6N/vS4gNf3z+dNV0D0pp3Q8tlXVNv9txxGG/9DxRI+rVD6tOFu54oKogVdHr9BBvNOmLX6AfFKRwmQZeEIAABCAAAQhAAAIQgAAhpLbxyvHTZWerGnUXLhNClDPlDwfcH/NE0GRMGGrTwh7deMb0qw6mWQg7G5cHuefajND5n8aVFPTfNj1IJVyCAAQgAAEIQAACEIDA3SkwGROGu/NOYdQQgAAEIAABCEAAAhC4DQIO2/R8G2JHlxCAAAQgAAEIQAACEIDAOAsgYRhnYDQPAQhAAAIQgAAEIACBySyAhGEy3z3EDgEIQAACEIAABCAAgXEWQMIwzsBoHgIQgAAEIAABCEAAApNZAAnDZL57iB0CEIAABCAAAQhAAALjLICEYZyB0TwEIAABCEAAumYi1AAAIABJREFUAhCAAAQmswAShsl89xA7BCAAAQhAAAIQgAAExlkACcM4A6N5CEAAAhCAAAQgAAEITGYBJAyT+e4hdghAAAIQgAAEIAABCIyzgGCc20fzEIAABCAAAQhAAAIQgMAkEKhtvHL8dFlxxYXaxsuEEH9fj5C502MXBVGWZSdB+AgRAhCAAAQgAAEIQAACEBgfAaOR3X30609zipc/NX/+bJ8glTchpExzsUTzQ2Z+CRKG8VFHqxCAAAQgAAEIQAACEJgMAkYj+2zqx85S8RuvPFNQWneqSKdpaCaEqGZ4Lg5VhgfPdHDCYDAYysrLdVrtJb2eEHKfl5dCqQyaN4/P508GLsQIAQhAAAIQgAAEIACBu0vgr0e+KtNc3PbK0xt2ZV9rvfnHpMXBSu/2m7f+8+35IydLPO51dmTC0NbWdiIry9PT02/mTC8vL0KIXq+vq69vbm6OiY6WyWR3lz1GCwEIQAACEIAABCAAgTtboLbxynOb/5GZnrDxveyzFY0RCwPeT42taWj29nCe5ux0qlj3+t/yHZYwGAyGQ4cPz5wxIzBwjqa2/lprKyHE7Z5pilkzqior6xsaVsfHY57hzv4Hg+ggAAEIQAACEIAABO4ugZ0fnxYy/Pvcnbd+mMctQ/Lz4lF66Wqbv6/7oR2ruwzGqHUfO+xrVcvKy+VyuVI1u+Cbb3/q7HRzc3d39zAYDKXlVbMDAuRyeVl5+R3Hz+YnuiXk9d/2PdD5O24AYwvotgzTbqd2T45tcKgNAQhAAAIQgAAEIDCkQHHFhQdVPqeKdIQQoVDwfVNrU0u7SMQEKX0IIVeutTOMwGEJg1ajmeXnV1vXIJXKXJxdhQwjc5LIPT083Nyamppm+flpNZohIr5zPjXSiP1XDyyhdIiAcXmYAtqM0PCd3D/DgV4AH0gG5yEAAQhAAAIQgMB4CtQ2Xp6nuK+i9pKA4TMMIxIxQhHzoOr+dat/wbLsnuz/isUihyUM+qYmuVx+rbXV1cVFLGKcpWJXmcRZKvFwv7eryyCXy/VNTeM5WLQNAQhAAAIQgAAEIAABCIxGgMejjEAgZAQMIxAyzKaEJ4QC/sG8Eu13LU5iocMSBnNoIoZxkoicpRIXmZNMJhVzL5FU6mQwGHi80fTFqpNp92utussCoM0IFYktp1271xQNdTJ8V5W5ek+bvF8e6G6yF611rsN0kJToY+7L2kJPYWtJQojNce5aP0t4kgW7tAauvE143e3UpoWHp6e9xJU0jcJOrZ6e+rdQmxbmZemFUgvOkAETYnf4PSetTdl2TYbblyZ9sfPabGvV3LV+4en/J+3XO4oK/6Ck1HrpeNL9vUitdAPFb6NntrJ2gQMIQAACEIAABCAAgVEL+Pt6lOsuBSt9BAK+gOELGYGLs7jh0vXiqu+/Kv1OLBI6cobB09OzubnZ3e1eY9fPErFQJBIxppfRaHSWya5everu7j7ikWgzwuKK0zVdLMuyxi+M8Y9yH77Z/MRHDsWVt5tPJph/q3qgk2ElWzt+4kqyutjMJHP1pPhvrG1aqg8S2a1jNPYC14DmA+ObaXY2PPSry6qTf0XeM3XKGjNDqnUsF3P/SLgco26bZglXsvXAM3mv9q1l23LvAQbW6Ajx31CoN/fCaj4oX/2iJbbBA2bz7QzfrrNt78PuS5WSGvf529YcafvRx7ekRG04uHlB2Dtalr2xdxnX6uAR9r/ae+xD37JekeMNBCAAAQhAAAIQgMCAAiFzp5/T/LAoRMklDNx/AsrjFVZ8V1x9kcfni8WMxIEzDCql8nxd3QM+3h0dP3V0dlLTBoCuri6DwSCVSs/X1amUygEjHeACq9NWxm9KUZp+w4FGxMQ1V+tYNi/n87jXLCe7Kw508kDLR5E8nulhtmJjYeFA1Xse/1snBLpbJsLlMUtMASifWRFYU6MzWq8MdEAVyjmfPGt+EE4jM/ZGCti8nP6RcNWp3xsbl5rb6V/Ltv1eA6QR+/Zwn7x7pgVUrxZZf7B70IB7tdPdgV3n7ouWv8Pti0akbpVl5nL7VXLffY+3dYOdrSCDRtgf3G7MfcLDWwhAAAIQgAAEIACBUQjELgo6cvJsWPCMhwIeEPD5Aj7PVSpZtyr8t8tDnCRCETfD4LglScHBwXq9vrq6yn/WLErpjRttbe3tXV0GiURy7tw5vV4fHBw8ijGMsYosKcvyDN70Z2+keT6iX6vK5DOdHVyRn4r6pCL9ig7jhLm166uOuUyj3St8ho7EXq1BOmPVybz4drXRyIVt/GJcn7uPqC9VSmrAjrQ89uSJ449vWRcwyBBwCQIQgAAEIAABCEDg9gr4+7o/tzTkz3tOvv7SU8FKbz6fx+dbvvjHtJ9BoPJ1G82+Aruj4vP5sTEx9Q0NRcVFnR0d99wzTSaVtrRcLSgsrG9oiI2JGcWPMHAP3Q+/1bO+5bBHgIJyJ49mW5bf6DSVpg0C9k8uiYr7bI1154MmffFadZdtSe7Bv909DHZHONDJrirztIO1NXNHhEbsv9Fak/ZkpUZL7UXSp73+tWwL9KJg85Ne5PYJyOKWmZ/fW7u2rWL32O7wezWuzdhucu5TfQR90YiY2C8jec9Ub7aZXqiq0fX/+to+fQzw1jZm0n3HByiL0xCAAAQgAAEIQAACIxN4eeXCK9fat+0+mbrmsd/EhSt8PVLeP7np76cDZ3iseEwZvXDWAE/cR9aLpbRMJlsdH19aWlpSUpKTm0sI8fH2VigUTy5aNNxs4daxSN5HluZcXlBf33+mhITOk66/1UkIScr92fT4P/ngnxbPNm2hFi9YEEwCufJKeydpxP6z20PnyaipOuEa5BPaU9IlMWGsD+a5FTg7Z6sE6wmxtqaKWlbe3akg7J2qgkBCAu1E0hvZXi2bEspkW4qw9EoaueyfWX6URhObrm0qDHBoA2UNmPRuvNu5pwUamTGivpZuXLfgaEnP9IIyectKv0geT5aUdWOPpKfdYR7ZxNxzx4dZF8UgAAEIQAACEIAABAYV4PHokZ3P7z76dfTv9yXEhj8+f7pqugeltO6Hlsq6pt/tOOKwX3oeNIzxusiqk4U7HqgqSFXY9GD3pM11HI67gCZ98Qv0g4IUUy7n0N5wcx3KicYgAAEIQAACEIBAj0Bt45Xjp8vOVjXqLlzmHsjPlD8ccH/ME0GTMWGoTQt7dOMZ0686mGYhTMty7J7sGT+OJk5AmxE6/9O4kgIH7AaxBI2bO3F3Dz1BAAIQgAAEIACBPgKTMWHoMwS8hQAEIAABCEAAAhCAAATGS8Bhm57HK0C0CwEIQAACEIAABCAAAQjcPgEkDLfPHj1DAAIQgAAEIAABCEDgjhdAwnDH3yIECAEIQAACEIAABCAAgdsngITh9tmjZwhAAAIQgAAEIAABCNzxAkgY7vhbhAAhAAEIQAACEIAABCBw+wSQMNw+e/QMAQhAAAIQgAAEIACBO14ACcMdf4sQIAQgAAEIQAACEIAABG6fABKG22ePniEAAQhAAAIQgAAEIHDHCyBhuONvEQKEAAQgAAEIQAACEIDA7RMQ3L6u0TMEIAABCEAAAhCAAAQgcKcI1DZeOX66rLjiQm3jZUKIv69HyNzpsYuCKMuyd0qMiAMCEIAABCAAAQhAAAIQmHABo5HdffTrT3OKlz81f/5snyCVNyGkTHOxRPNDZn4JEoYJvyHoEAIQgAAEIAABCEAAAneMgNHIPpv6sbNU/MYrzxSU1p0q0mkamgkhqhmei0OV4cEzHZwwGAyGsvJynVZ7Sa8nhNzn5aVQKoPmzePz+XeMCQKBAAQgAAEIQAACEIAABCwCfz3yVZnm4rZXnt6wK/ta680/Ji0OVnq337z1n2/PHzlZ4nGvsyMThra2thNZWZ6enn4zZ3p5eRFC9Hp9XX19c3NzTHS0TCbDbYEABCAAAQhAAAIQgAAE7hyB2sYrz23+R2Z6wsb3ss9WNEYsDHg/Nbamodnbw3mas9OpYt3rf8t3WMJgMBgOHT48c8aMwMA5Z8uqvqnQEkIWBCnnzwusqqysb2hYHR+PeYY75x8HIoEABCAAAQhAAAIQgMDOj08LGf597s5bP8zjliH5efEovXS1zd/X/dCO1V0GY9S6jx32tapl5eVyuVypmr3v85z17+4rKNWovzzzmzc/PJipnh0QIJfLy8rLJ+6WsPmJbgl5w9zPPaLCIx3DuDZuN5iJ79FuGDgJAQhAAAIQgAAEIHDHCxRXXHhQ5XOqSEcIEQoF3ze1NrW0i0RMkNKHEHLlWjvDCByWMGg1mll+fucqag5m/Tvp5aQtb7/10Ku/vUkEuz/LrWu4MMvPT6vRDCHG5ic6uzqvzbYWy13rR10H/tyvzQgN38kNrv+LRuy/emAJpf2vTP0z1rEP4jP1FTBCCEAAAhCAAAQgAIGhBWobL89T3FdRe0nA8BmGEYkYoYh5UHX/utW/YFl2T/Z/xWKRwxIGfVOTXC7/qqRCKuSRWTP2NNZ9faFL+MuXfm7/seBcjVwu1zc1DR0yL2BO+du7tAaupDZje7nngrvyM//QUCgBAQhAAAIQgAAEIAABBwnweJQRCISMgGEEQobZlPCEUMA/mFei/a7FSSx0WMJgjpbhCy43N+/Jry8+d+PGTdL5M/cjD2KR0GAw8HjD6EsQ+KctD73+bi4hRJOTHbRlyxzLtyvVpoV50e7XWnUXIbVpv95RVPgHJaWmSYnatPDw9LSXuCLcpMRJ85IkTfrinjkK0wxG+K4qu7DHk+43N99doH+PXD1u0sP8kiywJjahInHvuoRVJ1uK8X55oMtOh8Nsh2gzejVuu9yo59ju2HW2Ppr0xX2mbrqHaSc2nIIABCAAAQhAAAIQuEsE/H09ynWXgpU+AgFfwPCFjMDFWdxw6Xpx1fdflX4nFgkdOcPg6enZ3Nz8vx6Zx0hdWnL2tF5qv3m5/da/9wqlrovCHr569aq7u/tw3Gnk/8Qdz85jT+48HrExkumu4r+hUM+aX5oPyle/mMfO2nBw84Kwd7Qse2PvMq4YW7dNs4Qr0npgCbEkJ6r1/67Z2rhs4bs6tjYtfA3vs6sFKYHdbdr8vXWMxl7g6hq/CHgjwZQJ9O+RZdXJvyLvmaMwZoZU61jC5ieGlWzt+Ml0UhebmcTVZfOT4r9J13SZG0zo92vaw28n8ZFDceXt5nYCa+wvvxpg7P62PqqU1LjPbaZujj6+ZV2AzfhxCAEIQAACEIAABCBwNwqEzJ1+TvPDohAllzBw/wkoj1dY8V1x9UUeny8WMxIHzjColMrzdXVzVYoNLyyXsrcE6r8I1X9xJbf+kvqit9zjfF2dSqkc3k34ZeqmxjfDtlUvX6ogPQuSep7Zq14tsvvj1NTvjY1L+3ehWv/vE3P+puQpjq88vTfS9OHd+tjeOksgXB6zxDSXQSNi4pozc7ntFv17pArlnE+eNU9Z0MiMvZECNi/nQMtHkTyeaT5BsbGwsFrHsnk5n8e9lqIc8KcnRtMOjdi3x5QX9R8hIWSAsfeUpRGpW2XmceW++x5v64a7dINHjwiOIAABCEAAAhCAAARI7KKgIyfPhgXPeCjgAQGfL+DzXKWSdavCf7s8xEkiFHEzDI5bkhQcHKzX66urq1b9z9PHPtz21h+S39ny+38deDfi0ZBz587p9frg4OBh3hNVSuocXaDtI3BWncyLb1cbjQM9sx+8ZcVsv14FlMlnOju4pn4qsvuxfo5Kab9Hc8Xrq465TKOUmlZGEVlSFtdU98uSk/Tqr98bR7XTr+FBTqhSUgN2pOWxJ08cx/TCIE64BAEIQAACEIAABO4iAX9f9+eWhvx5z8nXX3oqWOnN5/P4fMsje9N+BoHK120Y+wqGJ8bn82NjYuobGoqKi5yEgmVP/WLpE+HEcKugsLC+oSE2JmYEP8Jg/Z4fm65lccvMD8W5h/rWXQFVNbqhvjuVVSfPPRahNepijy4yf8S3abXfIZt/4nPPAAXH1L9HTfpirgUasf9Ga03ak5UaLV0SFffZGmuz5gLcBMLRbPOXuvaKtru3EbRz+C3LTgk2P+lF0/dHdVXV6IzcBIitQ3fLff/a+tCImNgvI3nPVG/G9EJfJ7yHAAQgAAEIQAACd63AyysXXrnWvm33ydQ1j/0mLlzh65Hy/slNfz8dOMNjxWPK6IWz+q2vHwOVTCZbHR9fWlpaUlKSk8ttXPbx9lYoFE8uWjSCbMFeADQy459ZfpRGE0JcEhMsuwKUyVtW+kXyeLKkrBt759irRzTpi2e/6au+vlFB6YaCTxJd3MLfKLSzjeHWsUjeR+YWknJ/5qYdlHZ6VEUtK58no7c6CSGCsHeqCgIJCdx/dnto90ni8oL6Op/Q5IN/WjzbtMm7J1qb+IbfzpkSEjpPut7UY1h6JaGBqVt3zlYJ1ts62LTc67CXD7ecaenG/7+9M4GPokj/ftVcCZBAhHAoymUyIQSIgCKH6wEYkICcRoR3PTjUXTe4nPuqiKiw+xcJrsR9XUFQcWVBbiERInjsf+UUUAMkmQnhEBCQIwECJMx0v5/unun0zPRMes7uSX7z4UNquque5/d8q7qnq6uqe8q9qw9Ih25c8uMLCIAACIAACIAACIBA/SOg09FV859+f/X3w//84fiRfR7s1jalbXNKadmpi4fKzr44b1XI3vRc/9hGX8QlOQOeoYtk+kvRFwoUgwAIgAAIgAAIgAAIhJhA6Ynz677+ed/hE9bjvxFCzO1b9ki9fcRDXdFhCDFo7Zqz5Pbq9q+sAztkl21oVzaUgQAIgAAIgAAIgAAIqEoAHQZV8cM5CIAACIAACIAACIAACGibQMgWPWs7TKgDARAAARAAARAAARAAARAIhAA6DIFQQxkQAAEQAAEQAAEQAAEQqCcE0GGoJxWNMEEABEAABEAABEAABEAgEALoMARCDWVAAARAAARAAARAAARAoJ4QQIehnlQ0wgQBEAABEAABEAABEACBQAigwxAINZQBARAAARAAARAAARAAgXpCAB2GelLRCBMEQAAEQAAEQAAEQAAEAiGADkMg1FAGBEAABEAABEAABEAABOoJAXQY6klFI0wQAAEQAAEQAAEQAAEQCIQAOgyBUEMZEAABEAABEAABEAABEKgnBNBhqCcVjTBBAARAAARAAARAAARAIBAC6DAEQg1lQAAEQAAEQAAEQAAEQKCeEDAEHGdh0YGAy6IgCIAACIAACIAACIAACIBAwAS6pHYLuKy/BQPvMBBC2tzWwV9/dSP/idNl9Tb2ulGD0ihQm1IaSNc9Amjhda9OEZG/BOrVUVCvgvW3JaiVP0yVUlh0IGJ9BkxJUqvxwC8IgAAIgAAIgAAIgAAIRAEBdBiioJIgEQRAAARAAARAAARAAATUIoAOg1rk4RcEQAAEQAAEQAAEQAAEooAAOgxRUElRI5Hdnt36joSW/f9RaifSdNQEAKGhI4AGEDqWsFSnCAiHxh0vFLBsnYoLwYAACNRpAugw1NnqZa2LB7RomSB+hOv4OhsuAlOPgHABJLa0hIQXt9rUUwPPIKAOgS2T0x0HAU626tRApL26/8ji1KesBoQjRfyZYLfOSEhIuH1yXn25z+j9F9P63jDJDyn/S+rMzPHhP448apxk0GFQ1sCjLhe7ffKDb/5AO8/74UJ5eXn5pbW/N1heeWgy7mlFXU1qXDD3k9ly7Ke6Rz+/dIlraeXlK59sq3HNkAcC4SAwaNFP3Jm2UXw4jMOmdgnEj+POfnzVfzLxRfzI1lpTAzMzCCFr87YKObfmFRBCRmUOJLR/7qlfys9ufyFJX6uRKM3g4xdzy+T0e2Z913PeLuGXdO/cB4pKS8Uwr65aKMzdWPS3/eLGCCfQYYgw8Ai5Ywu2fFp5Je7xqY4Dj/bPHNWUXPksr8AudO4z/lEsSKnp3BPi6N87e7iOPGxZbkZyQsv+7+X+OSEhITHj3VL2CLdF/KjR040QR7iplUCZ9YfqKkOqWXzE8qBFP7070PV5zUIT8mgwfjfFWsUgAwhoiYDLHWiP86TlvaHCMSGejbWkHVr8JdDenBZLqoutRxjHL6kw60y4QyzUvpC+44X3cofU56qnGYN+3yj+6vp8rnPFbs9be5HEj8vM0LuPMDhvrktZ1fxqCD8rPGSXyxh/6y3C+b38YrLWxQtWnjH0fP3//TFFUJT8p40FL3R0qIvpcXcX698WbbH+Y9HnqSl3m2IirFpwhw6DKtjD7rTUaiGEdEq5U/R0p7kdIaSotHRg9gt3m2L2b9xayh2rZe/lbCAxPV6aPIg7Vm9/+t9p03/gbpbsf7Nn8z2v9BIHDUnVvlmvfuy01iG7wCp0gi/tnX83exBjF04y9e9vh+S7TTG2Pa/dfcst3Gnd46qII0LlG0yATbH+MUbEUUlAGOaNGe24/ew2xnvlsy90Cxxn2jde4O4d4hPNBNjSbRt/vGxIf3TgnbVdVjmqnhuM2vM/ufVxREJyB9Nxc3PE4AxKXerfywWJMDrBX8ActRy6IfTQhAseboxC+x9vv5h8RyK2Y1KSGwchIlPHGdMfu7p83D2zvhszfXqq0aRKoLW1bFVEwWk4CdDkZ6ePaWXb81pugV16jhOOW8eV3y3dX93zm9DBcGiJ6SHMbjpf8GISpeKds1vumflDdVU49cK2pgnQ5Ge3nd35Zs/mDpVV+165u1lNP9OpXbbBBNgUnTbxFwS0TMDlSkhyheTQHD9u+h9TCO2Q3LEhqdq3catVy7FAmy8CVz7LuuWWW+6ZWTxmmfD76CszIUSoeiGTMCJRS4E6uFuclVQzH8k1Sm8XJMLohK3IcqQgf1WnR3/ftWzjVusRyzHHGIWrEQ1+U/iL6amcDvzjmz2bG3q+np1h9NwbmS3oMESGc6S9JCWbCSGHS46IjrkjipDUpCRCiHislm7N+6G6aty0F8ROraHn69wIg/NTMyImGiKE3TqD6yeId84wZ1cCpz4mJQMIe+c+IJ2cKtDw0WCCbIr1kTZirosEhDNzXYysHsQUP27V3v+52xRzdfk4z3sl9SD+QEJ0zEpatXDB4Us+rvVlLkiEvnd18ea8g6bUwZmpjYuL/5G39qJ0WmwggiJZRvYXkx95uFFcyk39kP9wA/V8j1R+dwS2osMQAcgquBCPRsdIt3SaICE04w9v9mwuDG/xHVZugZGj486PPAiKt0xO93H6i+PHENnSI0U3q1WIEC61QcD63jDx6Q2EEKFfKjs0LNtgQtIUtUECKkCAOM6Hpo7Jd+ocJ2HPidpSTsKZOaaH+U7X+RjSPEhrngBNeu792b0IIS6Lnuvr6IGi6hKu+6v2/fDDZeGnwa2UjwsSbn511b5PP93dKeXOgZkZlz/99NPKK92HDRTve7qZ0tRXb7+Y4nj7H/9fiSDY+t4wra1uirIOgzCxQWsQNdUcHWJo/0XfvsqtLri7GTez/JZRn9rM875Z5JgmSDsMerSTkLPmMKP9c09+92bP5p88niisMRqz/LhsaHTg2yufbHt1+biEhIRWf/hcNg821h8CQktwtJlVifN+uOC26NlXgwmuKdYfyIhU0wScy/q5oVfa2XGmFU7CVWuybrnF/QxMCOHnsXDbK688tXxrHX4sjKYrLnTikl94h5uZeeWzrDZ/KiD9Jr/UnfDzM4UqDp2fumNJGF52PB/JMyzvFyRJAzOFVb/cuBx/Y57E9Bg2MNnThja3ePvFHLTop5VPtt3zSi/hx/SeWd9pbeCRsl6HP2pBXVh0oM1t4pNR+Afs3P4093TFE+9xV6X8ghXuIvX7ghCeCrdMTh+z/j6Hi1oEhnH3idNlLrGH0RVMh50AajPsiOFAVQJo4arih3NNEKhXR0G9ClYTzUuBiDBVyonTZV1SuynwH4IsUTXCwI/eyo5ehYAETIAACIAACIAACIAACIAACHgQiFCHQeb1dX489d+xBERYNS+dHi08fFcYvuH+dzz22PO9Aaz4kBYum/jkR+dDkYWHAWe3vsOxy/ng5AED2gjGMQnKo+VgAwiAAAiAAAiAAAiAQL0gEIkOA7t1xj2zvot78jPno3fKuSnOXh6y66Du8tR/fhv/xgBxhS7X3bAufvj3y4nkJYsuNSa1wH7NvfZYfKqP2/OwXYq5fBnxz6N4TrYLEXwBARAAARAAARAAARCoZwRcX8gazuC5dR7LCYnpIaxqEIYLCPe+p9dEt9x7sDP4F1I4s4m7hDcGdH9NshCef89F3Bj+fR+ez6GSWGC3zuBee/yk8GYQ7p3Hny7/LK/g3Qzu9eTeP/yTLhzPyd7DPSf7hSTnW/cIOXG6zHtJ7e45c/J8q9sTw6EvfJbDoVZq88zJ89KvWk5HHnLkPQr81fIbktrXmni1WnjkOUTeY8ANJnxSw2Q5TGYDBuhvwcgfBSoSi3ywQnVEPuTIe/S34Yn5w1QpZ06e75IqOglvIswdBuHpcklvX9qb/HDfV7k3fPHPDdg4b9dW7n0AxNDz9V1bJ7s8DIuVvxDn3hhAO89TbyG823L1iK0yCW39nzn5VZiUh89yaAl4Wosi5ZGXGnmPQgWp5dezeQSwRWvi1dITeb+R9xhA8wh3Cw8ThDCZDRigvwUjrz/yHkUmarmOvN/IexQh+5sIk9QzJ7/yV0nA+UM3Jcn1TZbCAIL4Kg3u5XbnzpaXlwvvdfL7qf/s9kV/2x/3+FSXBy7V/p4LB5Zanoft+2HJeE52wI0LBUEABEAABEAABEAABKKfQChHGLiHyJL0MY8nfsJzEUcPrO8Nu2fWdyKruCc/498f3DH35HfmgQNfdeYnhDyVKeZySQjdj6cyB0q30uRn35+dd88syaSmeOl+SZp/HnZR31ezbvmM28rNVhLeSNB/8kvdP5313St3N3tFyB4jKcU9J5vPT8hTq/CcbAkZJEEABEAABEAABEAABOoNgdCNMPDIBi36SVzZzL/Cmnt7ZfKfNooby8vLTy7Ja6ppAAAgAElEQVRydgsk78cWMnCLoYWNZ7dLBxO25hVIlzuLtSNavrRqEjfBKdXMvRhCzoI4xME5khgXLTgUSnY5llPzO9xeRCUKqCXBFkxoNj5fyZsufOf0vbcWEWHerRFtGpFhye0VE0sb3LuwJF9p1Ye5fohGyIQ2zDoZVGgRRak17dSsBo9l33UaMDqxoJiQOpLdKM3gd7p0QZ8+Cy12v8tFvkDoY1ccg4quFWsMTUbtRBp1h3xoKsAPKyHuMPjhWXFW1rp4wcozNS8kFgs6X67Jvcj48SUkftwKt+UQYs7wJdiCCfFNaBNlvQIfMmjG0gvLBlOufyXz8bHXkturz3yrTBkfm0oX9G5FnZ8+Cw/7yOrnrlBYFg5ap7z4SRsVafCBiBCikJKra/+rtXTB0//OKqxkr++emjLYV4UqCslbJhfIXOckmJ9ehWQEhjGxzmqh/sNxDUeRX++R+q5uV1cR+iYbUbAtKgjtEdAj68JdsvdKdM+p4Lsij7ydYMmrcCyH71Rcy1lC8dHE5mXXnJAtub0a1Zx8Nk/qMCnPpqAK1c0S8dbofjUcos5S5A4E1/pS5DfikAWN0XHIO3kKl441P6hcyuj3tZzTWqT+RkGHQRgc4GcxuVJxG6D45R/cG6ZD8qH9c0/9Uq7AIJu/6fMxyzdlfbs+Pxrul4hwaIecEhvLfawjV/cL5Yk+SMtswYR7PuOuuYUPszVr3UZFQzRiaIEm2Lxsmv6vGtcsWzz7xNx3ivywx5YVlXTsmBz+Y6oGMstee/NQj6YhvdSQiTgEcGSsKtgU8UgVaFKaRTVoXgSqpifilRiCSFU4lsN3KmaZNT3/8nSOn/eVZJoRTTanrXackFmrZfe1PWs2l/D5SosPtUpNDtHvr4zn0G2KeGsMnXS/LYXgQPDbJ18g4pBDEGnEDnkBKc1YeqWCu8xhto5v+kwew7Ase3PHzOTAgEeqVPgvbiIViSp+8jbkjRmemTk8c+WGPFEA13aFj27gMuGeC3+bYeKE1sLmPgsPb57UQUxzBcX7EB45XfYSIhbk572ULHhq3u6dfzFT6rjxI+lkOy8iuVsaOQue49w1Gb/XfX5UUsfODUXl3J14513kmuKS4QixayETY40VISWxLEZXa6TWkkNpI4ea9Q5j0ltf7tpc4spntzimAMkALHWj5MJQuD3PFkwcuzfnpx1TRdeEpEzbtmNqJ06yWKGUOgjIeCGbn31+2cWPMnU67j4Bu7VmSpJEuePGvCwQ4hYRK1cd7pQJzVh6eXXq6+Md4wwSX84alBRx3+tORt6jLzhKNLvccOIBKvMrEc4lpZFKAMrUpnuYSmtQOAylx6lDgodBbrt0Y84Xbm2M+IKmNT0qVaIbQ8+hTilhbq+yZhMK8mocy5ITpjwZz+OIa4Y1Zyfx58bRal3+3DN6CHctIjlwatLSjc5C8mbNj4zuVFxsZQgheRt+ytm0kC3iuyGWL9eQ4cJ5u6ageLb0PLM5vQgHkXCmcj+QeVUeB6M8BJeDUWhI7o1HdClJSE8p8swlmd0NKmuNEgMuSfnoZGvTM2Rlrn0dCDjkx7s1LTUOeZcW4fziWd38HknzC3Z43+kpgL/oMAQAzVnEkjv30PMzMw108NCsz//muGITjlLh/j2zdby4qrx6LR15nOtQlixiXuq+cbjFkX5jgfsddGlO171sXvYT5B3Hzfc1PYtK75z+ySv39n7LwrJXlgzjfgB6H5h94zqfwTpyzUSnpLI5JYO5jRXL7nEbhGEL1n/ewnFnSL540vSdZwSPbMmiwnHPcmq9xegEw/2VWpZul6Y9IzVnz0r7p5nvS7lc70pHHpitnYr5Xym2Jq7BRNKSRbPMVv5Kur2UkjtDK/8KD7eOilSkJbd31h7HgAyzlRl7n4Oq6KVkEcNX05DF/xRuFfD3CZw321yV17QHqQsx7RLRV/K1KWYWEzRjRNa5IitXL76KyOx1IeO1uA84XEVLa0FWs2cTUtZuxQDFhBipc4tMbboC55qK4hrkrHpUqzwWNy8lrLSNcXZ8QNOaHrUqUaZBSsZpZfYG3VwVk1fhWJaeMGVitxPieRz5PBWzZdNSDMJtKd2Q99JSzM6DRsFfr2f4pKGjGvKjCqXFh5M7ZqZ24keASzZt1AkdEm+EpWcJ8TfIkturJ/eDtWNqJ5kDWXowOs7kXiHUjEsLvw7yAOUCF08pvovI7FXWGuV8OraJpxoxOnnsnvWu7Pzp4xSEQ16Er/rPt3sL8axu/pddnHkhvap0Lxv275LLrLD7qmsOas6SNGPm7DhhcJabpJT1kvRGtSNs06gRg/kb58kpaXFja9LOm+k1dMSckts5wl5uRHj540L/kmbmLskUuyPcfjZ/k3CHm/+RSJ6xcyd3EcmvAn99xpAa+/zJwvFbkrByVPlOQa234jV3jFIm7+bteY3Ri2UX19IvcpEOWVIm9E9eLhoijIrks6yLR5rx4eJh8nEJxkWz/I+Bc9Dc4dg3Q6k6Ic1aLYfGvuyoUPHXhRAievGoJqkRF+XSHbJp2kGsKW/VIVtO2Oi7iO+9vtqPD5eurcubC88mJDXprZQ0j7e0Z226AOebin816FGtsvI8vXhT6Llda3o4hQoaXsgrURasiMv33sCaq3/kRSnOhEulOzd6/asAKVdWvKwP+alYOi2EtabMvV0cH/aq2bnDR6TmjqmFRVZi+XJtp0cH00EjRpYWWxlrcZnQIfFKWEJDcMJ+8Ud6z4HZl5YKK/c8D2Qum3gwSs7knu3QRa1wyHv7KXQG6PnXd3vzvTew1ugZnUsgEomeIUt2ev/dl2byTEtqxFt0IffrzZGgzvfewCB7bZBi09LMz7dYRZ7YvTUMsUjEEugwBIy6dNOagzunpQm3cDpO3753zebgJ4nWosacvavqBls+Zm3jBFoz4FtTKG7iBsdoAP/HrUdRk8/xW2J9u1O+dJq+Z3E2L1s3tlKYYMdNtnPpodTYq0l5sVyTQXFK6DkEvz7E/daaLMPklLRD6zYFs3pYcVzKM3pWh3xZtmD9ugeFLqjvIr73EkLkM/gDx9OCkibkWarWSB0ZZGtTvnDgW5XKk3rwB5q0nJJ0uPV42g9TJXo6kobve29ImqvUXVjTXmPxcsL0zK+kCryHkDR0dOdDJRbvGZTu4YbT123MsxTRVG6KU3JH05ov3hHPP0qtsGVvFNvGM2tr1v4pOJDTUszKIXgClNcW7pOnm1fvE+Xdf6ecBZWELB+sP6cgTwuB+3Uqr/kbbsj+RFqjKswpT6RKHCrBrsROmPKgwxAgWDbv3ZfoVH5ekXCJbv0bu3B+no27UyIuC8vf5FjDEKAT92IlOQO4u0T8cpniBf0dPwCHi638ygTuVL7ySfE2kiOzuw3p96TpO5anvtZbKOKteFzWMOEmEHcDgF+SoSBGF8ucS9thYearaESqQ0y7PIWDu6XguBTmPK74q3OGVcHEZ5U9Okk6yu+kJM+QHyOalu7ysD82L7vPwsMuri25c1c092ttn5QVN01FnHNRGxBv1SGyciTYggmNHyt6ZfpgSn0X8brXScZrBu9w3MR4s+DZhLiCtfp1sy6JVNzjWZsu9cVyTcVlSwA1KHdYudjkvUgj4tLeobmU1YAeEaaQiFglenPkW0btzSZ85CXn9lAfyy4nTG9kPI8jri0p+blhC+bP2eu4JK3tzMM1Xh9maYdUc/6Qx/aNHpJCCEkZOoxZs+ZQSsdkfqKR0rZNO7w2c/HSy6uZMc2EXx/PA9mlWUrO5PIQXH8dvAF0scn/voT/5MnhEu/KlSycv9zJqkaMMzpv2D1D5srWev70fiDUuOZT3nAF6NfNuuS87c2RUMLr3iAiVdog3TQ7v0prJNSHvNOHx19P7F5leJQN94Za7xiHW0C02s/bkPf0KxbJkvakabMea7whb8mS7E9eHdBRx/XEGk8YX/steX8ApAwdVtgljlZXcS+d6P3W4R2dCOk067EOmTpd3MQNV5YMW7pvbi9nBtL4mbxyzwlPrv5ohlAk/slVssUpzf33hg6UDncJx6wgRlfLM2fP75himFYbE5r54mtz7xPccUJje+b8tIPrrpizdx0gvbo0msbH3jvnkGsYrt+q12bqPhI2Tdx8k59NlF1DaYY7w2NfneJ++aZtY4fmii644hzAVEI7SV07DPJTs1y9evkmYRV7773phFtFzV9N1gbECVCobkdtbuO98NMYpgkOOUQXlwprtWWLiLpk91IJGdn2w3v0CoccEc1zCTkX3ppQTY149ytM2JCJ1OlV9oiQ1hfXVMzDpFv8rkG5oAj1aJDmYWJE67K4Bwl4hRZkiwq5HrUqUTYQZ83KtiUSZHMNknw4jmWPeEN2KpaeJQiZuPkmP+CcoehULInU41eMG6yYcbiN43Fw3M3doqLX+RXVhLidqJ2nXzFI1wS/5nhC42bGLq8c+ujRwq6uP23sSeJ5JjfL/x5JD3DukKedZH4K1Tl5cl3Bosa96bTLXPDcb8oMx2WDZ3RE5oeVZsqHLJ5tZH+4iTbP2zjkXY8Az2/eqlu8qqy5ivAsHP4tlHV/bI5Sn4VFB9rcxr0nrR5+Tpwu65LaLRoD/+qrrx5++OFwKA+fZf/UsgUTEleOOu+YGqukbMSUs3nZpnl3HA7i0WkRkypyi7xHwbVafsXAg0loTbxaeiLvN2IetXwshwlCmMx6PdD8P5N7NcXviLR+Qnx5DHV0brH7cu2WNaRfI+83Yh41csh7yogYAUKkz5YJabuBMRAAAZ5AzVPSdGMrN37vvL0EOiAAAlFGAMdylFUY5IJAcAQ0cshrRAbBlKTgmhNKa40A9+qGDC2J4p6SNl1LgqAFBEAgIAI4lgPCFlghzZ3JAwvDS6m6HZ2XoKNws0YOeY3IIEFNSYrC6g+Z5DMnz4fMVgQNtbo9MUzKw2c53HiiSHnkpUbeo1DdavkNSWPTmni19ETeb+Q9Btxgwic1TJbDZDZggP4WjLz+yHsUmajlOvJ+I+9RhOxvIkxSW92eGLEZ8kF1GCKm0t+KCXf+wqIDURp7+JSHzzJqUyQQeciR9ygEq5ZfEXUwCa2JV0tP5P1G3mPA7SR8UsNkOUxmAwbob8HI64+8R5GJWq4j7zfyHkXI/ibCJDVMZmWjw2NVZbFgIwiAAAiAAAiAAAiAAAiAAEcAaxjQDkAABEAABEAABEAABEAgWgl8ta1g3/69taq/u8c9A/oHuM4THYZa8SIDCIAACIAACIAACIAACGiUwL79e2dOf4nyr1AU3pcg+/+7uQu10mFgbl7/de8nN88WscbYJikDmyb30yhaLcla+M47SuRMnTJFSbZg8kBJwPS0g04IQRU9qjhVUmWaFeYmXgs6VdGgilM3+OJXLYgJk4YwmRXR+ZXQlBipclWEqeJUiFoV16o4ldayNK26mBAKWPXNIaHPQCm34kBIi8E+2qu9mA4gEeIRhpNfvxVLbpji420Vpy7+Z4GhQZPGt/cIQFZ9K/Lcs896hmwwGCildrudYZgPFi/2zBCOLVASMFXtoBNCUEWPKk6VVJlmhbmJ14JOVTSo4tQNvvhVC2LCpCFMZkV0fiU0JUaqXBVhqjgVolbFtSpOpbUsTasuJiQCKP8pLi4WQ0tL63zo0EHha1paZ3F7YIlQdhhsNy7br5wy3NpRH9ecuVFhIL9c+GkNOgwKK2br1/8rzdn61lYHrRctR3+b9ETf21o2le4KdxpKAiasHXRCCKroUcWpkirTrDA38VrQqYoGVZy6wRe/akFMmDSEyayIzq+EpsRIlasiTBWnQtSquFbFqbSWpWnVxQQvgGVZYWBBjItS2rlzF/FrkIlQdhiqKy/arlXcrDhpv3bBfv0Sc7Nad/N6kPrqVfE7br9DiJdS2r5t679/tOdiReWRY7+1btUswhygJGDg2kEnhKCKHlWcKqkyzQpzE68FnapoUMWpG3zxqxbEhElDmMyK6PxKaEqMVLkqwlRxKkStimtVnEprWZpWXUw4BIizkn6XkiANNoB0KDsMDZu1O3XFYLIXE0rt1y+zxoamtn0D0FTPi+h0tNktCf/ZfeRSRWXb25t17XgrwzCqMIGSgLFrB50Qgip6VHGqpMo0K8xNvBZ0qqJBFadu8MWvWhATJg1hMiui8yuhKTFS5aoIU8WpELUqrlVxKq1laVp1MQEL4EcYqDQWSmlh4c+EkK5d08WegzSDX+lQvofh/dW7Vp7q/v1J42+Xq49fi//i6C3ztuqvXqvyS1B9ztywYWxis4TYGFOzpk02FPyo0+myMntcrbwaeSZQEjBz7aATQlBFjypOlVSZZoW5ideCTlU0qOLUDb74VQtiwqQhTGZFdH4lNCVGqlwVYao4FaJWxbUqTqW1LE2rLiZ4AZTStLTOnTt36dKlq9BJSE+/Kz39LkqpThfsBX+w5UXW/9lXtnX/r4euddhq+ENV1xknk2Z8Q8dZfr0298PtYh4kfBBo2SLx6jX2vz8cb9Wi6c59Ry9crGx96y2/65lUXVXto1Q4dkFJwFS1g04IQRU9qjhVUmWaFeYmXgs6VdGgilM3+OJXLYgJk4YwmRXR+ZXQlBipclWEqeJUiFoV16o4ldayNK26mFAJEJY+O5+VxA04CFv0er003gDSIZuS9PX+sgtXrjPUcOTXysumzj+dPPXb+XL7zSrL8d+uV9samELmKIAgo6LIrS2bv/vxDmvZuc7m1uu2/Eh1dOSg7gzDxMTGRlg/lAQMXDvohBBU0aOKUyVVpllhbuK1oFMVDao4dYMvftWCmDBpCJNZEZ1fCU2JkSpXRZgqToWoVXGtilNpLUvTqosJXoDw4oWDBwulcQnpbt2663Q6IYPnXoVbQjbCcOXyleprl+zV1+3V17fvLT1QfMp+s+pm5YUrlZUXLlYoVFOfs126VP7iM/0opa/mfHHqbHnzpvH9+qYwDGM0RrqvBSUBt0PtoBNCUEWPKk6VVJlmhbmJ14JOVTSo4tQNvvhVC2LCpCFMZkV0fiU0JUaqXBVhqjgVolbFtSpOpbUsTasuJiQCKKXCZCRhJtKcP47u1q37nD+O1taUpOZNDI2MOnt1pa2q8kfLmctXrjA3rxsN+lhy3ahzWYQhrSGkRQJVVVVxjWIe7JNC+eGjRx9Op4TV6XRGQ6Q7DFAiVoq/Ce2gE5SrokcVp0pqSrPC3MRrQacqGlRx6gZf/KoFMWHSECazIjq/EpoSI1WuijBVnApRq+JaFafSWpamVRcTvAC3AQRK6cadZcN6d6isrBzQtWXwaxhCdjE67alBldc2Hjl1sbKyyma/3iqWGGJMTeObjXmke8sWEX2NgLQFRFHaoNeVX/xt9CN3UcIaDPr+fVMuX7nCMqxeH7I6UkgDShSC8symHXSCNlX0qOLUsy48t2hWmJtULehURYMqTt3gi1+1ICZMGsJkVkTnV0JTYqTKVRGmilMhalVcq+JUWsvStOpighfgOSXprru6EUJ0Oh2l1K07IY1dYTpkF6NGo/HNyaNtNltFRcXVq1dNJlOTJk0aNmyoUAeypXVKFdamTH6mH8uydru9QcRXLwi1ACUBt0btoFOxKrUGQaxNzQoTFapYa1rQoKkK0oKYMGkIk1m3JqTwq6bESDWrIkwVp0LUqrhWxam0lqVp1cWESkDnzl2k656FGIU10EH2GULWYRA0GQyGZvxHWg1I10rgg8WLa80TmQxQEjBn7aATQlBFjypOlVSZZoW5ideCTlU0qOLUDb74VQtiwqQhTGZFdH4lNCVGqlwVYao4FaJWxbUqTqW1LE2rLiYkAliWHdKzrTSu2NjYGzduCP8Lt6Sle/1NBz5IUVh0oEsqN9hRDz/RG3v4lIfPcrgbWBQpj7zUyHsUqlstvyFpbFoTr5aeyPuNvMeAG0z4pIbJcpjMBgzQ34KR1x95jyITtVxH3m/kPYqQ/U2ESapodtv2gh/27a1V1d09eg7o/3Ct2WQzhHiEQdYHNoIACIAACIAACIAACIAACISDwID+GQP6Z4TDsmgzZI9VFS0iAQIgAAIgAAIgAAIgAAIgUGcIoMNQZ6oSgYAACIAACIAACIAACIBA6AkEPSWJLZiQuHLU+aWDqT8vWwisVJDhK3eqPGeQklAcBEAABEAABEAABEAABIIjcO3gwWs/7COUEpZhGIZb5UwIyz9WlU8SY6uWTQYNCthJ0B2GgD1ruSDNWHohvFPBtBw9tIEACIAACIAACIAACEQRgWv79sf1e4hUV7M2G2u3E77PwL0KWK8nBoPOaKzYvj2YcNBhCIYeyoIACIAACIAACIAACICAygQYxm6/dMnRYbDZCMty/3Q6qtezfIeBqaoKRmJo1jCsm3i78J6IPgsPc2rYggnNxuezrFuazct2vE5CN3CZzSF786QOjo0N7l1osXOlxWyUTsrj8/EGJ05o7eLFPe7SBb1bOUyJBaXWRKce1kQN7vo9crr7xHcQAAEQAAEQAAEQAAEQUJeAzcaUl9vKy6uNxpvt2ty8XmmrqLjZqtXN5k2ZS5ds5eWkujoYgaHoMFSvpSOPsyzLlixi3ljg6Cd4imILJo7dm1Ni43IyW8fzYxtsXvYT5B1uC8sya3oWWVliye2dtUfMxoy9T+hFkNq9JE3feUYwxZYsKhz3LKdEziknTWrtpe4bh1u4grL6pTl9ROcZL7aAAAiAAAiAAAiAAAiAQPgJsDabraLCVl7BlF8kDRuRtM721I6kWVO24oqd21jBVKneYTCNGjFYz6EwPzK6U3GxlVtp4flh8zd9nvXSVDOf07mbJpvTlj9Om3DDETQzd0mmgbVaDo192ZGNZozIOsf1Igghnl4sub1iYrkhBc+hiZTJu4XhDTmnLtaSU9Lixjr0J6ekuajjVXr6dYrHXxAAARAAARAAARAAARBQnQBrt9srLtsryu0lVtuOnaRhQ12zZvYjZdU7d9kqyu0VFaz6IwzBQDJn76q6wZaPWds4gUrmESkyKZRlWfb67qlmPZuXrRtbmccw/GiFYwRDkR1kAgEQAAEQAAEQAAEQAIGoJcDabPbLFbbyctvlK7o7buNm+LOMLrEZY7ffLK+wXa5gbqo+wiAL13ZYGGpg8zcJyxW4wYTVG4UJS+LGkpwB3CoFmrH0SkXxgv6HSixcthV/dUxDsuTOXdE8NVnpA1vjsoYJT3cV7cs6ldWLjSAAAiAAAiAAAiAAAiAQjQQYm40bYbh82ZCWqmvTrnr3nutr19P4eOMD9zPcCMNlUn0zmLjC85QkmjFz9vyOKYZphDSeMF5YrkDM2Z+8OqCjjls1IW5MGTqssEscreYWbht6v3V4RydCOu06QHp1aTSN3zhx801uehI/v8h3nDQz998bOlA6XGpf1qlvO9gLAiAAAiAAAiAAAiAAAlFEgDKs/eoVe+W1Gz/su3nq9I2duwjL2s6d0zVqwFy+zN60MTbn44YCiiroDoPLKwuSpu/YIchImbaNneZU9KEjIbORm1aU7czn/Ou50YsXZwHH3yFLytglzm0+nBLJaxaklmvSYgYxQQipic7pA39BAARAAARAAARAAARAQGUCrN3OXK1krl5lzp27cfAQe5PrHjA/7CMmk65hAz3DEL3nOl0/NAfdYfDDF7KCAAiAAAiAAAiAAAiAAAiEmoBeb7t2ja2stF+7xly/zt68yT2A1GDUx8YwDKOjVB/fOBiX6DAEQw9lQQAEQAAEQCCaCLDffEsfejCaFEMrCICAAgItn5107oPFzPVrjM1GGYYw3Gx+lhKi1+v0emowNhn8iAIzXrOgw+AVDXaAAAiAAAiAQF0iwGQ9TvbsI0MeIaNG0d69SGxsXYoOsYBAfSZgSEi47S8zw0cAHYbwsYVlEAABEAABENAKAfbv73K9BZOJ3fwl2fwlm9BE9+12kpCgFX3QAQIgoGECoXjTs4bDgzQQAAEQAAEQAAFucsLHywkhdNUKOuAh0jyRlFcwd93NtEti2iWxL79CbtwAJRAAARDwRoCyrIJHlsqVLiw6ILcZ20AABEAABEAABLRFIP7rb9u8/Y/Lncy/5MwjhOivXLn1rzlNfjwkqqxse3tlehohJLb0aFWb2693Sb3atw8bYxIzIAECIKBBAl1Su0VGVVAdhoipjAwL5V4Kiw5EaezhUx4+y8rrJbCcUaQ88lIj71GoRLX8BtaE3EppTbxaeiLvN/Ie3ape+dfwSZW3fOMG06MnqbxG16+h3e5y08kWFbNPjCPlFW7bSaOGNGs0uf9+Eht7MCEmSn/1hKDksbgHHMrvkfcoqlfLdeT9Rt6jCNnfRJikhsmsbHRYwyCLBRtBAARAAARAoI4QYN94k1ReIz17ePYWuElKqR3pt9vZlavI2bMkxUxatiLHj5H/fs9u+4b9aDn5iJvI1GJQP/LPxXUEB8IAARDwnwA6DP4zQwkQAAEQAAEQiBYCN26wGzdxj1Z86y2vkhMS6PPPuex9+ml69Bi7cSNX9ugxw8VLLnvxBQRAQEsEvtpWsG//3loV3d3jngH9M2rNJpsBHQZZLNgIAiAAAiAAAnWBALtzlzC8QNq38y+e9u3on18k6ensMxN11dX+lUVuEACBCBLYt3/vzOkvUUq5xxvwi5Nl/383dyE6DBGsllC7WvjOO0pMTp0yRUm2YPJAScD0tINOCEEVPao4VVJlmhXmJl4LOlXRoIpTN/jiVy2ICbGG48e4eUdJSQGa5d/VYLjkscJBRBZQIkAxAfnyq5AqwlRxKmBRxbUqTr01A9XFhFDAqm8OCX0GSrmHoAppMfBHe7UX0wEkQjTCwBZMaPzYMt2ovPKlg/n+TQBS6nOR55591nf4HyyO0ORRWSUGg4FSarfbGYZRV4mUUsSUSJ36SMuik+aPsGBV9KjiVArZW1qzwtwEa0GnKhpUceoGX/yqBTGyGgI8FZ89y4XWpDEhJACztFUrlhDjhdBPSZIVI9YCISTC511KYukAACAASURBVEzRtSrCVHEqhKyKa1WcilXsllBdTEgEUP5TXFwsRpeW1vnQoYPC17S0zuL2wBKh6TCw+Zs+H7N8E5myPt8+ODM0NgOLJ3pLbf36f93EU0qNRn2M0dDn3nvcdoX1q5uS1re2Omi9aDn626Qn+t7WsmlYXbsZd1MidJdVYeImzNtXrQlWRY8qTr3ViHS7ZoVJRRJCtKBTFQ2qOHWDL37Vghg3DYGfiisuc3G1bEkucRf9fpvlJzLpq8IyJclNjHZO8qoIU8Wp0OZVca2KU/EYd0uoLiZ4ASzLCgMLYmiU0s6du4hfg0yE5uI+b0PemOHvZJJtT2zIW5I5jNPEFkxIXEmHb1267DQhpHfOoR1TO3Gb87J1Q94TRE/cfHNJpkE2Z0nOgLuLs68s4U0RsnlSh7+mbt4x5aSbzZeLhgz98KgS+6PO80MfvCohvXlSB6Esie2Z89OOqWZ9kCiDL37H7XeIRowGvdFoMBn1p09zACP8EZVQStu3bf33j/ZcrKg8cuy31q2aqaWEEKIuE4WBi+g0IlgVPao4VVJBmhXmJl4LOlXRoIpTN/jiVy2IETUEcyrmVi0TQtLvIt9+I0Tnt9lGDfWV17g3u/HTk0REIUmIYjRyzhSDUkWYKk7dWkUkK0LFeMWKFhOqiwmHAHFW0u9Sgn2neyje9GzJnXvo+ZmZBjp4aNbnf1tosTvoV6+lI4+zLMuWLGLeWJDPssSS2ztrT06JjdvIbGXG3ufI7JEzZerMGlOW3LmrH5w1JZUzK835UveNwy2K7IvNwZlg87KfIO9wZVmWWdOzyBrg2+uc9kL5V6ejMSZjbKwpNsYYYzIaDar1ZHQ6mtg04T+7j1yqqGx7e7OuHW9lGCaUoSq2pR0mCiVrTbAqelRxqqSCNCvMTbwWdKqiQRWnbvDFr1oQE8ypmN2wgVvx3L6d5wNV/TCbwF9q/HpGxBLyhBY4ywalijBVnArhq+JaFaey1U0IUV1MwAL4EQZu0bP4oZQWFv5cWPizMFtJ3B5YIgQdhpJNG3WjhyRzQ4kZM2fHrdlc4pBiGjViMH+xa35kdKfiYivDWi2Hxr7suJdPM0ZknXNcqXvklJra/PY7utnTHUsjxJzJKWlxYx32k1PSeD9e7XuwocnmtOWP0ybj81mWZuZyAx0a+Oh0OqPREGMyNog1NogxxsYYTUaDyWSMvLSGDWMTmyXExpiaNW2yoeBHnU6XldnjauXVyCvRDhOFsWtNsCp6VHGqpII0K8xNvBZ0qqJBFadu8MWvWhAT7Kn4xg32ldncj/PsWWJchBC/zSZyY8vsMW7xdMg/WuAsG5QqwlRxKoSvimtVnMpWN99VUPkaLHgalNK0tM6dO3fp0qVr167plNL09LvS0++ilOp0wV7wB3+hXLppzcGdu9LoNEcVGHpvtk7txPUfgvukTJ2Zmrggf0rW+nUPzjrPDy8EZ9CltDl7V1U2NxuqcULm1cuOyVEuOSL9xWDQx8Zw4wkmoyE2xigsbiOExMY2iLCUli0Sr15j9x86PvjBjjv3Hb1wsbL1rbf8rmdSaemRCCvRDhOFgWtNsCp6VHGqpII0K8xNvBZ0qqJBFadu8MWvWhAT/KnY8UDV9u3oQw+KoQVgljZP5EbhK8pFI6FKaIGzbCyqCFPFqRC+Kq5VcSpb3YQQ1cWESoAwmOB8VhI34CCk9fpgp6sE22Fg8959iU61sDOdPYTSBb3vm583dclgmUrh7uuv+OvCGUO4QQZL7twVzbNmuIyeuJShGSNGPp+p+6h3ziGFT17yat92uNjKDDbr2fxNy2xkFCElOQMWdNyyJDNj6ZWKmTkDnimxkExuiYWKHxPfYYgxGUxGo8lkEqs2NgxzRn2HeWvL5u9+vMNadq6zufW6LT9SHR05qDvDMDERV6IdJr6JiXu1JlgVPao4FavAR0Kzwtw0a0GnKhpUceoGX/yqBTEhOBULD1R98H4xLkJIIGZbtOAsnOGftiS1FXRaC5xlg1BFmCpOhfBVca2KU9nqJoSoLiZ4AcKLFw4eLPSMsVu37jqdTsjguVfhlmA7DHkb8p5+xeLsLRBCkqbNeqzxhrwlg+Xui5uzdx0gvbo0mlZdRQiZuPkm13PwvnxgyIwp964+4Fi9oCQgWfskY+bs+R1TDNMIaTxh/Hg+4pShwwq7xFFehqH3W4d3qNxbEHq3JqPBaDDo+Y9Op6OUsixrNAZbR0rISfNculT+4jP9smevejXnC0pp86bx/fqm2G5WR16JgR9v0QITKR8faa0JVkWPKk59VIq4S7PCRIVCQgs6VdGgilM3+OJXLYgJ06k4ELNCh0F4PKvIKBQJLXCWjUMVYao4FcJXxbUqTmWrWwvXYCGhQSnt0qWruGJhRN+kjTvLhvXu8MWuo+pPSRqypGyIK36amXslk9u09IL49umk6Tt2OHIJc4GkRWiGfE5CuNURsxfVDC9Ic3pLe9onJGXaNtY5Y4p8yPuWyyYVFfk0N7DATUTiPjr+43jAnCHSHYaqqqq4RjEP9kn5zy4rpfTRh9MpYbmpdRFXoh0mCtuD1gSrokcVp0oqSLPC3MRrQacqGlRx6gZf/KoFMSE4Fd/g7s25fQIxm9DEzUiovmqBs2wsqghTxakQviquVXEqW93cCIPa12DBC3AbQKCUCr2FyspK8VlJ3sJXsj3SF6NKNDnyWHKfmn0l60CKH0WiOWtsjOm3387HxHArnU0mk2MNA0v0+kjXkUGvK7/42+hH7qKENRj0/fumXL5yhWXYyCvRDhOFLUtrglXRo4pTJRWkWWFu4rWgUxUNqjh1gy9+1YKYEJyK5cYEQmBWxBR0QgucZYNQRZgqToXwVXGtilPZ6ubWi6p9DRa8AM8pSXfd1U1YzC3MWPEWu8Ltkb4YVSiLy2bO3lWZ7Uf+KM+a1inUC7sDBSIooZROfqYfy7J2u71BxFcvCNq1w0QhS60JVkWPKk6VVJBmhbmJ14JOVTSo4tQNvvhVC2IEDSE4FTdxGR8ImVkRVhAJLXCWla+KMFWcCuGr4loVp7LVTQhRXUyoBHTu3EW67lmIVxhhcBuC8IbC23YNdxi8Sa6L2z9YvFgjYUFJwBWhHXRCCKroUcWpkirTrDA38VrQqYoGVZy6wRe/akFMaDRc5t/xLJlQFBqzIqngEpoSIw1FFWGqOBWiVsW1Kk6ltSxNqy4mJAJYlh3Ss600rtjY2Bs3bgj/i49LkmbwK80tq/WrgJi5sOhAl1RusKMefqI39vApD5/lcDewKFIeeamR9yhUt1p+Q9LYtCZeLT2R9xt5jwE3mPBJlVpmJ05it31D58yiTz8dsFTuDQwff8zOmUufeZK+xr3VIRo/UiyR0R95j2JcarmOvN/IexQh+5sIk1TR7LbtBT/s21urqrt79BzQ/+Fas8lmwAiDLBZsBAEQAAEQAIE6QaBtu2DDEBZPx8YEawflQQAEwkNgQP+MAf3FRw2FxUewL34LiygYBQEQAAEQAAEQCI4AWyXzlKRATJ44wZVq6zLbIRA7KAMCIBC1BNBhiNqqg3AQAAEQAAEQ8E6AxvBjAvzr27znqn0PW1rKZQp+pKJ2V8gBAiCgUQJBrWHQaEyQBQIgAAIgAAL1nkDz9z9s8cXW008/cenxkQHDoFXVqSOfJISUrFxij48P2A4KggAIhJxAJNcSB76GIZIqQ44YBkEABEAABECgbhNgW7dhCWldzdwexBNK2JUrWcZO0rt06nl/3caF6EAABHwQwJQkH3CwCwRAAARAAASilsCjw7hnHOVvIeXlAcfArlvPPZDxiccDtoCCIAACdYBA4FOS6kDwCAEEQAAEQAAE6jAB5qEB5OgxYjLR+/uSF16g3e7yL9gbN5i0dKLX637eT1R6g6d/gpEbBEAgPAQwwhAerrAKAiAAAiAAAmoT0K1fQ4c8wo0zbPuGHTGanTiJ3LihXBS7YQOx27nOBnoLyqkhJwjURQIYYaiLtYqYQAAEQAAEQEAkUF7OrlzF5v6DVF4jrW/T5X1BEhLEnT4STN/7yanT9P336CODfGTDLhAAgTpPACMMdb6KESAIgAAIgED9JpCQQJ9/Tvf9f0hHMzl1mul7P/v3d2sdauCGF06dJq1vQ2+hfrceRA8CHAF0GNAOQAAEQAAEQKAeEEhI0G1YRwc8RCqvsX/PZXr0ZA/86CNs9u2F3HLnGVN95MEuEACBekIAU5LqSUUjTBAAARAAARDgCRw9xsyeTf53B7cYeuqL9OmnpEsUuF7EmTPsRx+RPfu4+Uvf/wfUQAAEQAAdBrQBEIhWAnPmzNGCdI3I0AIKaACBKCLAvv4G+9FyX4JNJrpqhd8PVvJlEftAAASilQA6DNFac9BdzwnM4T9agKAdJVqgAQ0gEEUE2G++ZZctI/t/5BZDCx+TiXRoR5PuJElJdMzjpFWrKAoHUkEABIIkUHri/Lqvf95z8Hjpid8IIUltmvfs3HZkv65JbRIDf9NzkJpQHARAAARAAARAQEUC9KEH6UMPqigArkEABDRCgGHY91d//69Ne0Y93O0Pj/XtmnIbIeTnktMHSk79n5eXPzm0JzoMGqkpyAABEAABEAABEAABEACBSBNgGPbxmR/HN4r9fMH4HT+Vrdp64I0PthJCUtq1GNDLvCZn/Oz3v0SHIdK1An8gAAIgAAIgAAIgAAIgoBEC76/+vmnjRnP+MGj6wo2XKq7934kD0s23VV6r/m7/kRX5+7/aZf1r9hA8VlUjlQUZIOA3AVYbH791owAIgAAIgAAIgIA2CJSeOP+vzXtnPz9w2sINPxw8fmebxPvu6nDq3OWGDYxPDOqePfb+omO/zf1wO0YYtFFdUAECIAACIAACIAACIAACkSWw7uufHx/U/b8Hjuw7eIIQcvzXSyOnLvv1wtWkNomfzRv3QI874+MaWE6cR4chstUSKW9Hj50oPXK0vLwiUg7hJxIEEhKaJN3Zvn27NoIzhmEi4RU+QAAEQAAEQAAE6iiBPQeP/2nM71bk7yOEmEyGk2crYkzGmBhjV3NrQsj5S5VGoyHGRNFhqJv1r9fHdk1Pb5mYUDfDq69RnT1ffvmK8+mHhLAsq5wEm/+iKWvv2wf+98/JerdSec89ZJ2+Tbrdc4tbEXwFARAAARAAARCoAwRKT/zWJfnWg6W/Gox6o5HrKphMxnRz6ynjfsey7OKNP8TGxuh0FGsY6kBdy4eA3oI8l2je6lanfi1hyNv481uvp6/dXCJTiu97uGz33OKy2+VLNBOFdhAAARAAARAAAaLTUaPBYDIajEaDyWh8efxDJoP+k/wDll8uNow1NYyNQYcBrQQEopWAy2W77y9MwRdFg4f8eXjq+jwLw7jl5eJ33eS5xXW/y7doxQfdIAACIAACIFDvCSS1aV5o/TXd3Npg0BuMepPR0Dg+9tiv5XsOn/zvT7/ExphiY2MaNDChw1DvWwoARC0Bu51R+M+Wv/nwsEHtmf5DOi5emH9TKLX5+ZQY/jPisxsMb8pzixL7UcsPwkEABEAABECgvhPo2bntjyWn+vU0cx0G7p+B6nQ7D/6yp+i0Tq+PjTU2iDU1wAhDfW8miD+aCTAso/Bf/heFwwclMSyTMflPB7/IZ1im5O+PPMW+dbWy8mpl5eonYli5LQqNRzNCaAcBEAABEACBek1gZL+uq7bs653ernvqHQa93qDXNWnUYMqYPn8a1bNhA1MMN8JgSm3foi6PMJTkDOiz8HB0twK2YEKz8flua1tlN0Z3nFAfCAG7so+t+P+9teKHl+5qHNeoUXy36XvWbvrSZrOz7OjMhwUDDMsyjF1mizL7gUhHGRAAARAAARAAAQ0QSGqT+PshPd9cvOW15x5ON9+m1+v0eiro4tczGFLaNHvsAbM2OgzuV8ClC/r0WWixB4WRLZj/1zazpqQGZSSAwpbcXn3mWwMoiCIg4CcBRtnH8uVm3WvfXSovF/7t+csvb79XxLBkzaYvOQP20pIiG8swMluU2fdTNbKDAAiAAAiAAAhoiMDzj/U9f6lyzvtbZj75wAtZfZLbNJ/67paXP/i6U7vmox8wD+9759zFBXX2saps/qbPRw5bSh2dJA1VC6SAQIgI2G7aarVEyTeL3ro6ZFsHMXP7AY/YMxaVlS6Ynjn4loRxJKZ7j850mN3e/rmc6YMfkW6x3fTjsa21KkEGEAABEAABEAABDRLQ6eiq+U+/v/r74X/+cPzIPg92a5vStjmltOzUxUNlZ1+ct2pc5t3aGGHwDm/zpA5U+DS41zHmYMntFRMrbHPOOOJGJHIWPMdtbOKYwJO3IW/M8EyHYUkRZwb3ImxetsMRpZPy+Osw6biHmOYTEye0dhUgBlC64Kl5u3f+xUxp/KSN3LNnPM2KeblE6YLerdz9SkvpBi5zXhPWmJJsJJbcXo2cZFws40vdJ2Bj7LX+u8nc/3Zp/qR2bE3O9s9str7zANvmuc0Hfz179tcTX27OFzLc4bGldvs2JriRwLpfS4gQBEAABEAABLROQKejLzx+36fzfn+ponLBx9seHL/ogWfe/dvSglNnLnz85rg/ZPXVdIeBzct+grwjPMGRWdOzyMoStmBC7wOzb1znN1pHrpno6EWwZXNKBnMbK5YNppSwBesPPz8zkx8/YQsm3PNZVmElt5fZOl4cU5EWsb7XO2tPTolNyMOMvc/XhKjqtXTkcSFn6uvjXXMmTf/klXt7v2Vh2StLhhFLbm1mk6bvPMOZYlm2ZFHhuGe55QpswcSxe0UxDsGyG7Xe/KAvvATsNpsW/oU3SFgHARAAARAAARCICIGkNokzn+63av7T+1fN2L9qxsr/eXLGU/2S2iQSQjTdYaDJ5rTljwtjAjQzd0mmgc3ftOziR5k6HX9XPnnGzp1cL4IQQju8PmOICLNk4fyiUUOS+e/c3KSsl6aa3d9uKy3CWi2Hxr7syEMzRmSdc5gVLUoTplEjBvPW+JxrNpdId0rTSszWjBukTN7NhyIrWHYj58ucvatyt0x0Uh1I11EC2ugvYIShjjYvhAUCIAACIAACTgLi/XbnBi38ZcuKSjqOStYRmr2rKpsbVWickHn18sTNNxcTEjdxA3fz3tendNPaa6M/TvGVJXT70lLMARtj87J1YyvzGEYYFZmQuDJgUyhYDwncVLCGoR5iQcggAAIgAAIgAAKhJaCNEQbaIdWcP/edIiG2koXzl6d0TKa0JGcAt5yAZiy9UlG8oP+hEgsdPDRr5ZOONQaEODK4IbF8uTbtL+JNd26YYvVGx5NJrSWH5O6HcnlW/FVcIzF3RfPUZH61tO1wsZXhliLkbxLXEtR4YwvWf97CkbNmKyGHi638g1C9mpVkjssaxvUWJC6kgkW/shs5M1jDIIFZ35K2mze18K++YUe8IAACIAACIFDfCGhkhCFp+o7lRY1702mXuQpo/Exe+QxuQtHQYYVd4mh1FSHE0Putwzs6EdJp6b65vZwb+Zzuc402v/1O5+GWmoo0Z3/y6oCOOq5rFHvvvemkU80uMWXO3nWA9OrSaBrva+Lmm3x/I2Pm7PkdUwzTCGk8YXzN4ofqtZm6j4SizpyiIW6O0KzHOmTqdPxIiKzZmsw0M/ffGzpQOpwLWnQhEVzLxhpLSIEACIAACIAACIAACIBAWAhQ1u2lYGHxEkGjbMGExJWjzi8Vbtu7OWbzsk3z7ji8Y6awvMFtr6KvPu0rshCRTCd+OdfmjhYRcQUnESVgPXo6uf1thJA5c+aMGTM2or69OFu5csWcOXO87MRmEAABEAABEACBqCegjSlJIcRIM5Ze4B+UVGOz5tGlurGVG7/nxy5q9iIFAiAAAiAAAiAAAiAAAiDglUCdG2HwGmn92oERhrpa3+IIgzDIoIUwMbyghVqABhAAARAAARAIHwF0GMLHVk3L6DCoST+cvqUdhnD6gW0QAAEQAAEQAAEQcBCoc1OSULNOAmfPlzuT+FtHCKBO60hFIgwQAAEQAAEQiCoCGGGIqupSLLay8sbFq9cVZ0fGqCHQNK5Bo0axUSMXQkEABEAABEAABKKfADoM0V+HiAAEQAAEQAAEQAAEQAAEwkYAU5LChhaGQQAEQAAEQAAEQAAEQCD6CaDDEP11iAhAAARAAARAAARAAARAIGwE0GEIG1oYBgEQAAEQAAEQAAEQAIHoJ4AOQ/TXISIAARAAARAAARAAARAAgbARQIchbGhhGARAAARAAARAAARAAASinwA6DNFfh4gABEAABEAABEAABEAABMJGAB2GsKGFYRAAARAAARAAARAAARCIfgLoMER/HSICEAABEAABEAABEAABEAgbAXQYwoYWhkEABEAABEAABEAABEAg+gmgwxD9dYgIQAAEQAAEQAAEQAAEQCBsBNBhCBtaGAYBEAABEAABEAABEACB6CdgiP4QEAEIgAAIgAAIgAAIgAAIgECwBEpPnF/39c97Dh4vPfEbISSpTfOenduO7NeVsiwbrG2UBwEQAAEQAAEQAAEQAAEQiFoCDMO+v/r7f23aM+rhbt06tu6achsh5OeS0wdKTq0pOIAOQ9RWLISDAAiAAAiAAAiAAAiAQNAEGIZ9fObH8Y1iX//DIzt+Ktu+21py7BwhJKVdiwG9zH3S24e4w2C3238uLLRaLL+eOUMIubVVq2SzuWuXLnq9PuhYYAAEQAAEQAAEQAAEQAAEQCDEBP6x6r8/l5ye84dB0xduvFRx7f9OHJBuvq3yWvV3+4+s2nKgedP4UHYYrl69un7DhhYtWnRo375Vq1aEkDNnzpQdPXru3LkRw4fHxcWFODiYAwEQAAEQAAEQAAEQAAEQCIJA6Ynzv3/l0zU542e8s3HfwRMZfVPfnTmy+Ni525rHJ8Q33L7H+to/C0LWYbDb7Z+tWNG+XbtOndJKSo9eqqgghDS7JSH5znaHDx06euzYuLFjMc4QRG2iKAiAAAiAAAiAAAiAAAiEmMD8j782GfW3JsbPfi+fm4bUoZWO0l8vXE1qk/jZvHE2OzN0ysche6zqz4WFLVu2NKd03LF3//WqqmbNEhMTm9vt9p8KD3dMTW3ZsuXPhYUhjk9qzpLbK2F8fkgWcLMFE5qFyJRUoZAOq3FCSLjtB+MiGG3BlPWsBWwBARAAARAAARAAARDgCew5ePyulNbbd1sJISaT4eTZirMXK2NijF3NrQkh5y9VGo2GkHUYLCUld3boUFp2rFGjuMbxTUxGY1zDBi1bNG/erNnZs2fv7NDBUlJSW72ULujdijo/8ZM21pZfst+cvat82WBKJZt8Ji25vfrM58Bo4cMWTIhvIo1386QOtIn3TosP8TRj6QV/OPCuffkS+PjwqBygv9qkTv0t66nKktsrJtbZuKiDttSFZxHPLf7m97SALSAAAiAAAiAAAiCgJQKlJ37rknzrwdJfDUa90WiMiTGaYox3pdw+ZdzvWJZdvPGH2NiYkHUYzpw927Jly0sVFU0aN46NMcY3im0S1yC+UYPmiU1tNnvLli3PnD1bOxzaIafExvKff5MpfRYerr1I3cihS00r/NtCi52LxpI7t7DFvYr7PsEAYPM3fT5m+aasb9fn866DsaXlsmzBhHs+yyqsFJoWy2zNWrcxNONRWo4a2kAABEAABEAABEBAGQGdjhoNBpPRYDQaTEbjy+MfMhn0n+QfsPxysWGsKWQdBkFMjNHYsEFMfKMGjeMaxsU1iuU+MY0aNbTb7Tqdf74yh2cWFlkJKV3Qp0/Ogue4e8P8TXc2L1u8Tzwpz8bNkRG2iLfkJfeSa7oc0o05Xyx4at7unX8xU+edZg+U6ybeLnhxWnAZ/RD8EkK4oQDh0+Be8XJfvJPtLOtUSCnVDVzGSfb4GDq9Oqv7a29vJoSUbNrYddasNMdjpTz9lrqKd+OzRZhPVZIzoGbcgB9GEMVIfedtyBszPDNzeObKDXmO7dLJP4601dUjl9GDjyRGSp18vGsTq5BSXlhtYUpUeTYAYSLWxAmtXatMEqi15FDayKFm56O6HOMVR1zjclNrlY538RG5kee6dp51Ld0oVEFJzgC34SPZupDIRRIEQAAEQAAEQAAEIkQgqU3zQuuv6ebWBoPeYNSbjIbG8bHHfi3fc/jkf3/6JTbGFMoRhhYtWpw7dy6xWVPGdrNBrCkmJsbIfxiGiY+Lu3DhQmJioj9xl+bMXT1meCZXhC2bUzKYuzdcsWyw9b3eWXscoxDMVmbsfQstdpqZyzJbxwsvrWYLJvQ+MPvGdf5esnXkmoncdbz0BjOztVMJO/2TV+7t/ZaFZa8sGSajqnotHXmcs8BsTX19PN8TSJq+84zj/nTJosJxz+azLJuX/QR5R9jIrOlZZGU5R3LeJ47dK2p26PTwSjMf5W97b5m/LmNGptG539Pvne7ipXyIo1eWMm1b8ewTw/q+bWVLF/R5Urfywo6pnZw2nX8tuXMPPT8z00AHD8363Dm+4dwp+Zvk7lHkU7KIeWMBd6vekutZL5wFL9oc0Db/iTR+ZtaUVEIUhCkI8ubIU5IkAGLOnpX2TzPfn5BcrHvEJVVLkz1q3JW8l7quGcpwtsmUqTNr8Fpy565+kA9Zqg9pEAABEAABEAABEFCHQM/ObX8sOdWvp5nrMHD/DFSn23nwlz1Fp3V6fWyssUEIRxhSzOYjZWV3tL7txo3rN6qqKL+cwGaz2e32Ro0aHSkrSzGba8fAlk1LMfDXdcnrHvt6SSbfCaAdXp8xRCjLWi2Hxr48VbhVTDNGZJ3jLtMlHzZ/07KLH2XqdIKRGTt3FllZbuJN1ktiqQ8Xu3YSxPvE4iiBadSIwfzdaN7Fms3c6ouaG9spk3fzPmmyOW3548JdZJqZuyTTULt3iVSP5MCZL594o/ecolFDkknNhCRPv+4FJXyku1KmbVuf9k+zTkJSupsfytCNHpJMCKEZM2fHCWG6ZvHyTeRjfmR0p+JiF3bYVQAABY5JREFUK+O1Xrxo4+wKl/57lwgrT2oPk9fi1ZGHJDfpQ5aUCb2Ul4uGcG1DHI+S5nNV61uSH3Utwbv57Xd0s6f7sdhGKg9pEAABEAABEAABEAg1gZH9uq7asq93ervuqXcY9HqDXtekUYMpY/r8aVTPhg1MMdwIQ+imJKWnp585c6ao6HDSnXdSSq9cuXq1stJmszdo0ODHH388c+ZMenp67QFK1jDI3BGvvTyXI27iBsdQAP/H0evwUdacvavqBpf3+m5Hp8I1c1qKmc3L1o2tzGMYLpvzzjERCpaPWds4gTrn4fjtXeIrZerMNGsn6e1neb+SIr6TyR07eM9QumnNwZ3T0vieFe04ffveNZsjtwrcktur27+yDuwQgAcZpvcYZfYIPYdal20okaS8rlOmzkydtyCf3bJ+HYYXZCoFm0AABEAABEAABNQikNQm8fdDer65eMtrzz2cbr5Nr9fp9Y471/x6BkNKm2b+rSvwEYlerx85YsTRY8d279lddePGLbckxDVqdPHihR07dx49dmzkiBEheQkDd1N/xV/F1QJzVzRPTa65Gc/dKx88NGvlk8459KQkZ8CkPJtLKbZg4rP885cOF1trfQwrW7D+8xaCi7isYY574fmbhHUIgnFCM5ZeqShe0P9QicWr99WOJbbcbWnZNQwCWblnAXn65fIqEM/mZXdem2FhrCNX9xOBiDXI5r37Ep1qqelaWf/GLpzPrwkhtsPFVoYbVJGq9enRhbAl17NeRL9cgi2Y0GNWl8+/l3bPFIbpnyOnVzYvW7qKgLAF69c96BhE8h6Xb0m11jWxlhwSV5LTjBEjv83UPVL0CoYXnLWCvyAAAiAAAiAAAtog8Pxjfc9fqpzz/paZTz7wQlaf5DbNp7675eUPvu7UrvnoB8zD+94Zsg4Dd2s/Lm7c2LGJzZodOHDgg8WLP1i8eN++fYnNmo0bOzZkr3k2Z+868H8+79KIuy+eMtntopNjTjOW7ptbODLOceP8jTbcdaG0lG7g4Y7J3KT2x77N1OlcriPFOqte65jUpBuoW/HfqWY9zcz9N5ki2ExYf01Yh5AydJjoqPPajE+mdvLm/ZNXTwgGxbKiK98JWb+1iOctluQM0I2t3Pj9jGSaNH3HcmZMM8ncfS5H3oa8p1+Zys1HcnySps16jFv6zM+fESaG1aj1jYsQF8Ky9eJ0w63qXjh/2dXLHw4xCjzjJ230I0xpVdbmSPRJM1987SC/bl5w2fDVtJ38VCjvcdUuyUtLE+u6wZOfiQIIIUNmTLm3ibBgQ7oZaRAAARAAARAAARBQmYBOR1fNf7pz0q3D//zh8dMXHuzWds7Eh176/X3dk5qXHD075IUPQvamZ5UDteT2evr6pztmSq6AVVYE9/WcAJuXbZp3x2FnmyzJGfAMXRTwRLt6DhPhgwAIgAAIgAAIRIBA6Ynz677+ed/hE9bjv3E3hNu37JF6+4iHukZ/h8GS26vLjN3VVRM336x9uUIESMNFvSZQuqD3fTN28a8cafxMXvlSx/pm1zUb9ZoQggcBEAABEAABEIg2AtHfYYg24tALAiAAAiAAAiAAAiAAAlFEIJRrGKIobEgFARAAARAAARAAARAAARBQQgAdBiWUkAcEQAAEQAAEQAAEQAAE6ikBdBjqacUjbBAAARAAARAAARAAARBQQgAdBiWUkAcEQAAEQAAEQAAEQAAE6ikBdBjqacUjbBAAARAAARAAARAAARBQQgAdBiWUkAcEQAAEQAAEQAAEQAAE6ikBdBjqacUjbBAAARAAARAAARAAARBQQgAdBiWUkAcEQAAEQAAEQAAEQAAE6ikBdBjqacUjbBAAARAAARAAARAAARBQQgAdBiWUkAcEQAAEQAAEQAAEQAAE6imB/w9Zi13n97x54gAAAABJRU5ErkJggg==;" vertex="1" parent="1">
          <mxGeometry x="-30" y="540" width="710.14" height="310" as="geometry"/>
        </mxCell>
        <mxCell id="mrAvrRE1MW7g6DJ7nFR--4" value="External users&#39; access controlled from within Jenkins" style="html=1;whiteSpace=wrap;comic=1;strokeWidth=2;fontFamily=Comic Sans MS;fontStyle=1;" vertex="1" parent="1">
          <mxGeometry x="270" y="520" width="120" height="60" as="geometry"/>
        </mxCell>
        <mxCell id="mrAvrRE1MW7g6DJ7nFR--5" value="" style="endArrow=classic;html=1;" edge="1" parent="1" source="71u3ecABH108ZCmo1haN-12" target="mrAvrRE1MW7g6DJ7nFR--4">
          <mxGeometry width="50" height="50" relative="1" as="geometry">
            <mxPoint x="-20" y="920" as="sourcePoint"/>
            <mxPoint x="30" y="870" as="targetPoint"/>
          </mxGeometry>
        </mxCell>
      </root>
    </mxGraphModel>
  </diagram>
</mxfile>
